<?xml version="1.0" encoding="utf-8"?>
<!-- Generator: Adobe Illustrator 17.1.0, SVG Export Plug-In . SVG Version: 6.00 Build 0)  -->
<!DOCTYPE svg PUBLIC "-//W3C//DTD SVG 1.1//EN" "http://www.w3.org/Graphics/SVG/1.1/DTD/svg11.dtd">
<svg version="1.1" xmlns="http://www.w3.org/2000/svg" xmlns:xlink="http://www.w3.org/1999/xlink" x="0px" y="0px"
	 viewBox="0 0 250 250" enable-background="new 0 0 250 250" xml:space="preserve">
<g id="Layer_2">
</g>
<g id="Layer_1">
	<g>
		<circle fill="#50B748" cx="125" cy="125" r="125"/>
		<g>
			<path fill="#FFFFFF" d="M181.7,79H146H104H68.3c-6.5,0-11.8,5.3-11.8,11.8v71c0,6.5,5.3,11.8,11.8,11.8h113.5
				c6.5,0,11.8-5.3,11.8-11.8v-71C193.6,84.3,188.3,79,181.7,79z M94,99.7c0.4-1,1.1-1,1.6,0l6.2,14.3c0.4,1,1.7,1.9,2.8,2l15.6,1.5
				c1.1,0.1,1.3,0.8,0.5,1.5L109,129.4c-0.8,0.7-1.3,2.2-1.1,3.2l3.4,15.3c0.2,1.1-0.3,1.5-1.3,0.9L96.5,141c-0.9-0.6-2.5-0.6-3.4,0
				l-13.5,7.9c-0.9,0.6-1.5,0.1-1.3-0.9l3.4-15.3c0.2-1.1-0.2-2.5-1.1-3.2L69,119.1c-0.8-0.7-0.6-1.4,0.5-1.5l15.6-1.5
				c1.1-0.1,2.3-1,2.8-2L94,99.7z"/>
		</g>
		<g>
			<path fill="#50B748" d="M176.1,128.9h-40.4c-1.4,0-2.5-1.1-2.5-2.5c0-1.4,1.1-2.5,2.5-2.5h40.4c1.4,0,2.5,1.1,2.5,2.5
				C178.6,127.7,177.5,128.9,176.1,128.9z"/>
			<path fill="#50B748" d="M176.1,139.7h-40.4c-1.4,0-2.5-1.1-2.5-2.5c0-1.4,1.1-2.5,2.5-2.5h40.4c1.4,0,2.5,1.1,2.5,2.5
				C178.6,138.6,177.5,139.7,176.1,139.7z"/>
			<path fill="#50B748" d="M176.1,118h-40.4c-1.4,0-2.5-1.1-2.5-2.5c0-1.4,1.1-2.5,2.5-2.5h40.4c1.4,0,2.5,1.1,2.5,2.5
				C178.6,116.8,177.5,118,176.1,118z"/>
		</g>
	</g>
</g>
</svg>
