<?xml version="1.0" encoding="utf-8"?>
<!-- Generator: Adobe Illustrator 17.1.0, SVG Export Plug-In . SVG Version: 6.00 Build 0)  -->
<!DOCTYPE svg PUBLIC "-//W3C//DTD SVG 1.1//EN" "http://www.w3.org/Graphics/SVG/1.1/DTD/svg11.dtd">
<svg version="1.1" xmlns="http://www.w3.org/2000/svg" xmlns:xlink="http://www.w3.org/1999/xlink" x="0px" y="0px"
	 viewBox="0 0 250 250" enable-background="new 0 0 250 250" xml:space="preserve">
<g id="Layer_2">
</g>
<g id="Layer_1">
	<circle fill="#50B748" cx="125" cy="125" r="125"/>
	<g>
		<path fill="#FFFFFF" d="M84.4,58.8c-3.7,0-7.2,1.6-9.8,4.2c-2.7,2.8-4.1,6.5-4.1,10.5v52.9v50c0,4,1.4,7.7,4.1,10.4
			c2.6,2.7,6.2,4.2,9.8,4.2h33.7h43.5h3.6c3.7,0,7.4-1.5,10-4.2c2.7-2.8,4.3-6.5,4.3-10.4v-50V73.6c0-4-1.6-7.7-4.3-10.5
			c-2.6-2.7-6.3-4.2-10-4.2h-3.6H84.4z M118.2,71h43.5h3.3c1.3,0,2.4,1,2.4,2.4v53v40.9c0,1.4-1.2,2.5-2.4,2.5h-3.3h-43.5h-33
			c-1.3,0-2.4-1.2-2.4-2.5v-40.9v-53c0-1.4,1.2-2.4,2.4-2.4H118.2z"/>
		<path fill="#FFFFFF" d="M158.6,157.8c0,1.1-0.9,2.3-2.2,2.3H93.9c-1.3,0-2.5-1.2-2.5-2.3V82.7c0-1.1,1.3-2.2,2.4-2.2h19h43.6
			c1.2,0,2.2,1,2.2,2.3V157.8z"/>
		<circle fill="#50B748" cx="125" cy="182.1" r="5.3"/>
	</g>
</g>
</svg>
