<?xml version="1.0" encoding="utf-8"?>
<!-- Generator: Adobe Illustrator 17.1.0, SVG Export Plug-In . SVG Version: 6.00 Build 0)  -->
<!DOCTYPE svg PUBLIC "-//W3C//DTD SVG 1.1//EN" "http://www.w3.org/Graphics/SVG/1.1/DTD/svg11.dtd">
<svg version="1.1" xmlns="http://www.w3.org/2000/svg" xmlns:xlink="http://www.w3.org/1999/xlink" x="0px" y="0px"
	 viewBox="0 0 250 250" enable-background="new 0 0 250 250" xml:space="preserve">
<g id="Layer_2">
</g>
<g id="Layer_1">
	<circle fill="#50B748" cx="125" cy="125" r="125"/>
	<g>
		<g>
			<path fill="#FFFFFF" d="M176.3,71.6c0,0-21.2,21.2-44,24.2c-2.5,6.7-3.7,13.7-3.7,20.9c0,7.2,1.3,14.2,3.7,20.9
				c22.7,3,44,24.2,44,24.2C192.7,137.3,192.7,96.3,176.3,71.6z"/>
		</g>
		<g>
			<path fill="#FFFFFF" d="M118.8,161.9c-4.3-4.3-6.3-15.1-6.1-24.6h6.1c0,0-5.6-8.1-5.6-20.5c0-12.4,5.6-20.5,5.6-20.5h-41
				c-9.1,0-16.4,9.2-16.4,20.5c0,11.3,7.4,20.5,16.4,20.5h11.9c2.2,5.3,4.5,12,4.5,16.4c0,8.2,8.2,24.6,16.4,24.6
				S127.1,170.1,118.8,161.9z M77.8,129.1c-4.5,0-8.2-4.6-8.2-10.3c0-5.7,3.7-10.3,8.2-10.3V129.1z"/>
		</g>
	</g>
</g>
</svg>
