<?xml version="1.0" encoding="utf-8"?>
<!-- Generator: Adobe Illustrator 17.1.0, SVG Export Plug-In . SVG Version: 6.00 Build 0)  -->
<!DOCTYPE svg PUBLIC "-//W3C//DTD SVG 1.1//EN" "http://www.w3.org/Graphics/SVG/1.1/DTD/svg11.dtd">
<svg version="1.1" id="Layer_1" xmlns="http://www.w3.org/2000/svg" xmlns:xlink="http://www.w3.org/1999/xlink" x="0px" y="0px"
	 viewBox="0 0 252 144" enable-background="new 0 0 252 144" xml:space="preserve">
<g>
	<path fill="#2992D0" d="M102.8,110.9c-0.8,1.7-2.6,2.7-5.4,2.7c-2.8,0-4.7-0.9-6.1-2.2l1.9-2.8c1,1,2.5,1.8,4.4,1.8
		c1.2,0,1.9-0.4,1.9-1.1c0-1.8-7.8-0.3-7.8-5.6c0-2.1,1.6-4,4.6-4.3c-2-4.5-3.5-9.2-4.5-14.1c-1.4,0.3-2.8,0.5-4.2,0.5
		c-2.7,0-4.7-2.1-4.7-5.9c0-1.8,0.1-3.5,0.4-5.2c-1.1,1-2.4,1.7-3.7,1.7c-5.8,0-6.9-3.9-7.5-9h-0.5l-5.3,14.7c-0.6,1.7-1.2,4-3.3,4
		c-3.2,0-3.7-2.9-3.7-6.2c0-3,0.2-6,0.7-9c-2.8,1.8-6,2.5-8.9,2.6c1.6,3.6,3.5,8,3.5,13.4c0,7-3,16.9-10.7,16.9c-6.1,0-7-9.7-7-16.7
		c0-16.5,5.7-55.8,22-55.8c3.7,0,5.9,2.8,5.9,6.8c0,11.2-10,23.3-15.8,30.1c0.9,0.3,2.2,0.4,3.4,0.5c4.1,0.1,6.9-2.3,10.3-9
		c0.6-1.4,1-2,2.9-2c2.1,0,2.1,0.6,2.1,2.7v2.6c0,1,0,2.1,0.1,3.1h0.3c1.6-3.2,3.5-8.4,8.1-8.4c1.7,0,2.9,1.1,2.9,2.8
		c0,1.5-0.9,3.9-0.9,6.5c0,2.4,1.1,3.2,2.5,3.2c1.3,0,3.6-3,4.9-5.4c0.4-1.5,0.8-2.9,1.2-4.3c0.4-1.9,2.5-2.9,4.3-2.9
		c0.3,0,0.6,0,0.8,0.1c0.3-1.3,0.6-2.6,0.9-3.9c0,0,0,0-0.1,0c-3.2,0-5.1-1.5-5.1-4.5c0-3.1,2.5-4.9,5.8-4.9c0.9,0,1.8,0.2,2.5,0.5
		c6-14,16.6-25.5,29.9-32.7c-9.6-5.2-20.7-8.2-32.4-8.2C56.2,4.2,25.8,34.5,25.8,72c0,37.5,30.4,67.8,67.8,67.8
		c11.7,0,22.8-3,32.4-8.2C116.8,126.6,108.8,119.5,102.8,110.9z M70.9,113.4h-5.8V99.6h5.8c4.3,0,7.5,2.6,7.5,6.9
		C78.4,110.7,75.2,113.4,70.9,113.4z M90.2,102.7h-6.6v2.2h6.4v3.1h-6.4v2.3h6.6v3.1H80.1V99.6h10.1
		C90.2,99.6,90.2,102.7,90.2,102.7z"/>
	<path fill="#2992D0" d="M95.4,103.5c0,0.8,1.8,0.9,3.6,1.4c-0.4-0.8-0.8-1.5-1.2-2.3c-0.3,0-0.6-0.1-0.9-0.1
		C95.8,102.5,95.4,102.9,95.4,103.5z"/>
	<path fill="#2992D0" d="M57.9,38.1c-6.7,0-11.5,25.2-12.2,27.8c4.6-5.7,13.7-17.1,13.7-24.8C59.4,39.5,59.1,38.1,57.9,38.1z"/>
	<path fill="#2992D0" d="M43.6,87.5c0,4.1,0.1,9.8,1.3,9.8c3.5,0,3.5-6.1,3.5-9.3v-0.1c0-7.2-1.9-13-4-17.1
		C44.1,76.4,43.6,81.9,43.6,87.5z"/>
	<path fill="#2992D0" d="M90.4,80.5c0.2,0.1,0.5,0.1,0.7,0.1c-0.4-2.8-0.6-5.7-0.6-8.7c0-0.7,0-1.5,0.1-2.2
		c-0.9,2.5-1.7,5.1-1.7,7.9C88.9,79.1,89,80.2,90.4,80.5z"/>
	<path fill="#2992D0" d="M70.9,102.7h-2.3v7.6h2.2c2.4,0,3.8-1.8,3.8-3.8C74.7,104.3,73.4,102.7,70.9,102.7z"/>
	<path fill="#50B748" d="M157.8,50c1.4-8.3,4.6-15.8,9.8-19.3c1.2-0.8,2.4-1.2,3.7-1.2c4.1,0,5.1,4.5,5.1,8.7
		c0,12.8-6.2,21.9-10.1,31.3c-0.6,1.4-0.9,3.3-0.9,5.1c0,2.8,0.6,5.4,3.4,5.4c1.9,0,4.8-3.6,7.2-6.6c-0.1-0.9-0.1-1.8-0.1-2.6
		c0-14.1,3.4-28.2,9.7-36.2c2.1-2.6,4.8-5.1,8.9-5.1c3.4,0,4.2,3.2,4.2,6.7c0,14.1-8.3,25.1-14.8,33.2c-0.4,0.6-0.5,2-0.5,3.1
		c0,2.7,0.4,7.3,3.2,7.3c1.6,0,3.5-2.1,5.1-4.3c0.3-5.6,1.7-9.8,3.7-13.9c0.7-1.4,2.4-2.7,4.4-2.7c1.4,0,2.5,0.7,2.5,2.1
		c0,1.7-0.9,3-1.4,4.7c-0.9,3.2-1.8,7-1.8,10.8c0,1.9,0.4,3.9,2.3,3.9c3.2,0,4.4-5.6,5.1-8.3l2.1-8.7c0.5-2.3,2.7-4.2,5.5-4.2
		c1.2,0,2.2,0.5,2.2,1.6c0,4-1.7,8.8-2.4,13c-0.5,2.9-1,5.4-1.5,8.8c2.5-2.1,10-8.7,13.6-12c-0.7-36.9-30.8-66.6-67.8-66.6
		c-11.7,0-22.8,3-32.4,8.2C140.8,20.4,152.3,33.9,157.8,50z"/>
	<path fill="#50B748" d="M193.2,39.2c0-0.8-0.3-1.4-0.9-1.4c-6.7,0-9.1,19.6-9.1,26.5c3.6-6.3,7.2-13.5,9.3-21.2
		C192.9,41.7,193.2,40.4,193.2,39.2z"/>
	<path fill="#50B748" d="M170,36.4c-5.6,0-5.9,22.1-5.9,27.2v1.5c3.2-7.2,7-16,7-25.9C171.1,37.8,171,36.4,170,36.4z"/>
	<path fill="#50B748" d="M226.1,75.3c0,0.6-0.1,1.2-0.1,1.8C226.1,76.5,226.1,75.9,226.1,75.3z"/>
	<path fill="#50B748" d="M194.6,113.4c-4,0-6.6-1.7-6.6-5.9s3.2-7.7,5.3-10.3c3.4-4.2,7.5-7.2,11.7-10.6l0.8-3.6
		c-1.6,1.5-3.9,3.2-6.7,3.2c-3.4,0-5.9-2.1-6.9-5.1c-2.7,2.8-6,5.1-8.8,5.1c-3.6,0-5.7-3.9-6.7-8.3c-3.3,4-7.2,8.2-10.6,8.2
		c-2.5,0-4.3-1.5-5.5-3.3c-0.9,5.9-2.7,11.6-5.1,16.9c1.9,0.6,3,2,3.7,3.3l-3.1,1.5c-0.3-0.8-1.1-1.5-2-1.8
		c-1.1,2.3-2.4,4.5-3.8,6.6c0.7,0.8,1.7,1.3,2.8,1.3c1.3,0,2.5-0.9,3-2l3.1,1.4c-0.9,1.8-2.7,3.7-6,3.7c-1.9,0-3.5-0.6-4.8-1.6
		c-5.9,8.1-13.6,14.8-22.4,19.6c9.6,5.2,20.7,8.2,32.4,8.2c35.3,0,64.3-27,67.5-61.5c-4.7,3.6-12,9.3-14.3,10.9
		C209.8,99.7,206.6,113.4,194.6,113.4z M167.4,113.6c-4.2,0-7.4-2.9-7.4-7.1c0-4.2,3.2-7.1,7.4-7.1c4.2,0,7.4,2.9,7.4,7.1
		C174.8,110.7,171.6,113.6,167.4,113.6z"/>
	<path fill="#50B748" d="M194.3,105c-0.3,0.7-0.4,1.3-0.4,1.7c0,0.7,0.4,1.1,1.2,1.1c5.8,0,8.1-9.4,9.1-14.1
		C200.2,96.2,196.2,100.5,194.3,105z"/>
	<path fill="#50B748" d="M167.4,102.5c-2.3,0-3.8,1.7-3.8,4c0,2.2,1.5,4,3.8,4c2.3,0,3.7-1.8,3.7-4
		C171.2,104.2,169.7,102.5,167.4,102.5z"/>
	<path fill="#00733B" d="M149,77c0,2,0.6,3.4,2.4,3.4c2.7,0,4.9-2.4,6.2-4.1c-0.1-0.8-0.4-12.6-0.4-12.6C152.9,65.9,149,71.1,149,77
		z"/>
	<path fill="#00733B" d="M149.3,106.5c0,1.1,0.4,2,1,2.7c1.4-2.1,2.7-4.3,3.8-6.6c-0.3-0.1-0.6-0.2-1-0.2
		C150.9,102.5,149.3,104.2,149.3,106.5z"/>
	<path fill="#00733B" d="M96.1,45.1c1.4,0.6,2.2,1.8,2.2,3.7c0,3.3-2.2,5.2-5.4,5.3c-0.4,1.3-0.7,2.6-0.9,3.9
		c0.9,0.2,1.3,0.6,1.3,1.6c0,3.5-1.5,6.8-2.7,10.3c0,0.7-0.1,1.5-0.1,2.2c0,2.9,0.2,5.8,0.6,8.7c2.2,0.3,4.3-0.7,6.3-1.9
		c-0.4-1.4-0.7-3.1-0.7-5c0-8,4.1-16,12-16c4.5,0,7.7,2.8,7.7,7.4c0,6.6-6.4,10.5-11.6,13.8c0.9,1.1,1.8,1.5,3.5,1.5
		c3.4,0,8.1-1.5,9.8-6.7c0-0.1,0.1-0.2,0.2-0.3c0.4-7,1.7-15.7,6.1-15.7c1.2,0,2.1,1,2.1,2.5c0,3.7-1.4,9.6-1.9,12.1
		c2.3-4.4,5.9-14.6,12-14.6c2.3,0,3.2,2.2,3.2,4.7c0,5.4-1.6,11.5-1.6,14.8c0,2.2,0.6,3.3,1.6,3.3c1.1,0,1.7-0.6,2.7-0.8
		c-0.3-1.1-0.4-2.2-0.4-3.4c0-9.1,6.7-16.2,15-16.9c0.1-3.1,0.4-6.3,0.9-9.4c-5.5-16.2-17-29.6-31.8-37.7
		C112.7,19.6,102.1,31.1,96.1,45.1z"/>
	<path fill="#00733B" d="M148.4,112c-1.6-1.3-2.7-3.2-2.7-5.6c0-4.3,3.2-7.1,7.5-7.1c0.9,0,1.7,0.1,2.4,0.4c2.4-5.3,4.1-11,5.1-16.9
		c-0.4-0.6-0.8-1.3-1-1.9c-2.4,2.3-5.7,5.2-10.2,5.2c-2.6,0-4.5-1.2-5.7-3c-1,2-3.5,3.4-5.6,3.4c-4.3,0-5.9-3.4-5.9-8.1
		c0-3.4,0.4-6.5,0.9-9.6L124.9,84c-0.6,1.3-1.4,2.1-3,2.1c-2.8,0-3.6-2.3-3.7-5.1c-3.4,3.6-8.5,4.4-11.8,4.4c-2.7,0-5.2-0.9-7-2.9
		c-2.1,1.1-4.7,2.2-7.5,2.8c1,4.9,2.5,9.6,4.5,14.1c0.3,0,0.6-0.1,0.9-0.1c2.2,0,4.1,0.7,5.6,1.9l-1.9,2.7c-0.9-0.8-2-1.2-3.1-1.4
		c0.4,0.8,0.8,1.5,1.2,2.3c2,0.5,4.2,1.4,4.2,4.1c0,0.7-0.1,1.3-0.4,1.9c6,8.6,13.9,15.7,23.2,20.7
		C134.8,126.8,142.5,120.1,148.4,112z M108.4,113.4h-3.6V99.6h3.6V113.4z M123.7,110.9c-1.5,1.6-3.5,2.7-6.1,2.7
		c-4.1,0-7.5-2.7-7.5-7.1c0-4.4,3.3-7.1,7.5-7.1c3.1,0,4.9,1.6,5.9,3.4l-3,1.6c-0.5-0.9-1.6-1.8-2.9-1.8c-2.3,0-3.8,1.7-3.8,4
		c0,2.3,1.6,4,3.8,4c1,0,2-0.4,2.5-0.8v-1.1h-3.1v-3.1h6.7L123.7,110.9L123.7,110.9z M138.7,113.4h-3.4l-5.8-8v8h-3.6V99.6h3.7
		l5.6,7.6v-7.6h3.6V113.4z"/>
	<path fill="#00733B" d="M111.2,66.1c0-1.6-0.7-2.7-2.2-2.7c-3.8,0-7.7,6.8-5.7,12.1C106.5,73.7,111.2,69.7,111.2,66.1z"/>
	<path fill="#FFFFFF" d="M70.9,99.6h-5.8v13.8h5.8c4.3,0,7.4-2.6,7.4-6.9C78.4,102.2,75.2,99.6,70.9,99.6z M70.9,110.3h-2.2v-7.6
		h2.3c2.5,0,3.8,1.7,3.8,3.8C74.7,108.5,73.3,110.3,70.9,110.3z"/>
	<polygon fill="#FFFFFF" points="80.1,113.4 90.2,113.4 90.2,110.3 83.7,110.3 83.7,107.9 90.1,107.9 90.1,104.8 83.7,104.8 
		83.7,102.7 90.2,102.7 90.2,99.6 80.1,99.6 	"/>
	<path fill="#FFFFFF" d="M91.8,103.7c0,5.3,7.8,3.8,7.8,5.6c0,0.7-0.7,1.1-1.9,1.1c-1.9,0-3.4-0.8-4.4-1.8l-1.9,2.8
		c1.4,1.3,3.3,2.2,6.1,2.2c2.8,0,4.6-1,5.4-2.7c-1.4-1.9-2.6-3.9-3.8-6c-1.9-0.5-3.6-0.6-3.6-1.4c0-0.6,0.5-1,1.5-1
		c0.3,0,0.6,0,0.9,0.1c-0.5-1-1-2.1-1.5-3.2C93.4,99.8,91.8,101.6,91.8,103.7z"/>
	<path fill="#FFFFFF" d="M100.9,104l1.9-2.7c-1.5-1.3-3.4-1.9-5.6-1.9c-0.3,0-0.6,0-0.9,0.1c0.5,1.1,1,2.1,1.5,3.2
		C98.9,102.8,100,103.2,100.9,104z"/>
	<path fill="#FFFFFF" d="M103.2,109c0-2.7-2.1-3.6-4.2-4.1c1.2,2.1,2.4,4.1,3.8,6C103.1,110.3,103.2,109.7,103.2,109z"/>
	<rect x="104.8" y="99.6" fill="#FFFFFF" width="3.6" height="13.8"/>
	<path fill="#FFFFFF" d="M117.1,108.6h3.1v1.1c-0.5,0.4-1.5,0.8-2.5,0.8c-2.3,0-3.8-1.7-3.8-4c0-2.3,1.6-4,3.8-4
		c1.3,0,2.4,0.8,2.9,1.8l3-1.6c-0.9-1.7-2.8-3.4-5.9-3.4c-4.1,0-7.5,2.8-7.5,7.1c0,4.4,3.3,7.1,7.5,7.1c2.6,0,4.6-1.1,6.1-2.7v-5.5
		h-6.7C117.1,105.4,117.1,108.6,117.1,108.6z"/>
	<polygon fill="#FFFFFF" points="135.1,107.2 129.5,99.6 125.8,99.6 125.8,113.4 129.4,113.4 129.4,105.4 135.2,113.4 138.7,113.4 
		138.7,99.6 135.1,99.6 	"/>
	<path fill="#FFFFFF" d="M156.1,104.5l3.1-1.5c-0.7-1.3-1.8-2.7-3.7-3.3c-0.4,1-0.9,2-1.4,2.9C155.1,103,155.8,103.7,156.1,104.5z"
		/>
	<path fill="#FFFFFF" d="M153.2,113.6c3.3,0,5.1-1.9,6-3.7l-3.1-1.4c-0.5,1.1-1.6,2-3,2c-1.2,0-2.2-0.5-2.8-1.3
		c-0.6,1-1.3,1.9-2,2.8C149.7,113,151.3,113.6,153.2,113.6z"/>
	<path fill="#FFFFFF" d="M145.7,106.5c0,2.4,1,4.3,2.7,5.6c0.7-0.9,1.3-1.9,2-2.8c-0.6-0.7-1-1.7-1-2.7c0-2.3,1.6-4,3.8-4
		c0.3,0,0.7,0.1,1,0.2c0.5-1,1-1.9,1.4-2.9c-0.7-0.2-1.5-0.4-2.4-0.4C149,99.3,145.7,102.2,145.7,106.5z"/>
	<path fill="#FFFFFF" d="M167.4,99.3c-4.2,0-7.4,2.9-7.4,7.1c0,4.2,3.2,7.1,7.4,7.1c4.2,0,7.4-2.9,7.4-7.1
		C174.8,102.3,171.6,99.3,167.4,99.3z M167.4,110.5c-2.3,0-3.8-1.8-3.8-4c0-2.3,1.5-4,3.8-4c2.3,0,3.7,1.7,3.7,4
		C171.2,108.7,169.7,110.5,167.4,110.5z"/>
	<path fill="#FFFFFF" d="M52.4,68.8c-1.1,0-2.5-0.2-3.4-0.5c5.8-6.8,15.8-18.8,15.8-30.1c0-4.1-2.2-6.8-5.9-6.8
		c-16.4,0-22,39.3-22,55.8c0,7,0.8,16.7,7,16.7c7.7,0,10.7-9.9,10.7-16.9c0-5.4-1.9-9.8-3.5-13.4c2.9-0.1,6-0.8,8.9-2.6
		c0.6-4.1,1.5-8,2.7-11.1C59.3,66.6,56.6,68.9,52.4,68.8z M57.9,38.1c1.2,0,1.5,1.4,1.5,3c0,7.7-9.1,19.1-13.7,24.8
		C46.5,63.3,51.2,38.1,57.9,38.1z M48.4,87.9c0,3.3,0,9.3-3.5,9.3c-1.1,0-1.3-5.7-1.3-9.8c0-5.6,0.5-11.1,0.8-16.8
		c2.1,4.1,4,9.9,4,17.1L48.4,87.9L48.4,87.9z"/>
	<path fill="#FFFFFF" d="M80.7,70.4c-1.4,0-2.5-0.8-2.5-3.2c0-2.7,0.9-5.1,0.9-6.5c0-1.7-1.2-2.8-2.9-2.8c-4.6,0-6.5,5.2-8.1,8.4
		h-0.3c0-1-0.1-2-0.1-3.1v-2.6c0-2.1-0.1-2.7-2.1-2.7c-1.9,0-2.4,0.6-2.9,2c0.1-0.2,1.5-1.2,1.7-1.2c0.7,0,3,1.4,2.7,2.5
		c-1.4,4.8-4,7.9-7,9.8c-0.4,3-0.7,6-0.7,9c0,3.2,0.5,6.2,3.7,6.2c2.2,0,2.7-2.3,3.3-4l5.3-14.7h0.5c0.6,5.1,1.7,9,7.5,9
		c1.4,0,2.6-0.7,3.7-1.7c0.5-3.4,1.4-6.6,2.3-9.8C84.3,67.4,82.1,70.4,80.7,70.4z"/>
	<path fill="#FFFFFF" d="M67,61.1c0.3-1.1-2-2.5-2.7-2.5c-0.2,0-1.5,1-1.7,1.2c-1.2,3.1-2.1,7-2.7,11.1C63,69,65.6,66,67,61.1z"/>
	<path fill="#FFFFFF" d="M90.4,80.5c-1.3-0.3-1.5-1.4-1.5-2.9c0-2.8,0.8-5.4,1.7-7.9c0.1-4.1,0.6-8,1.4-11.9c-0.2,0-0.5-0.1-0.8-0.1
		c-1.9,0-3.9,0.9-4.3,2.9c-0.4,1.4-0.8,2.8-1.2,4.3c0.4-0.8,0.7-1.4,0.9-2c0.2-0.5,0.8,0.3,1.1,0.3c0.7,0,0.9,0.9,0.9,1.9
		c0,1.7-1.1,4-1.1,4c-0.9,1.5-2.3,3.9-4.1,5.5C83.1,76.4,83,78.2,83,80c0,3.8,1.9,5.9,4.7,5.9c1.4,0,2.9-0.2,4.2-0.5
		c-0.3-1.5-0.6-3.1-0.8-4.7C90.9,80.6,90.6,80.6,90.4,80.5z"/>
	<path fill="#FFFFFF" d="M93.6,44.6c-3.2,0-5.8,1.9-5.8,4.9c0,3,1.9,4.5,5.1,4.5c0,0,0,0,0.1,0c0.8-3.1,1.9-6,3.1-8.9
		C95.4,44.8,94.5,44.6,93.6,44.6z"/>
	<path fill="#FFFFFF" d="M93.3,59.5c0-1-0.5-1.4-1.3-1.6c-0.8,3.8-1.3,7.8-1.4,11.9C91.8,66.3,93.3,63,93.3,59.5z"/>
	<path fill="#FFFFFF" d="M91.1,80.7c0.2,1.6,0.4,3.1,0.8,4.7c2.8-0.6,5.4-1.7,7.5-2.8c-0.9-1-1.5-2.2-2-3.8
		C95.4,80,93.3,80.9,91.1,80.7z"/>
	<path fill="#FFFFFF" d="M98.3,48.8c0-1.9-0.9-3.1-2.2-3.7C94.8,48,93.8,51,93,54C96.2,54,98.3,52.1,98.3,48.8z"/>
	<path fill="#FFFFFF" d="M87.5,69.2c0,0,1.1-2.2,1.1-4c0-1-0.2-1.9-0.9-1.9c-0.3,0-1-0.8-1.1-0.3c-0.2,0.5-0.5,1.2-0.9,2
		c-0.9,3.1-1.8,6.4-2.3,9.8C85.2,73.1,86.6,70.7,87.5,69.2z"/>
	<path fill="#FFFFFF" d="M118.3,73.6c-0.1,0.1-0.1,0.1-0.2,0.3c-1.7,5.2-6.5,6.7-9.8,6.7c-1.6,0-2.6-0.4-3.5-1.5
		c0,0-2.1,1.8-5.4,3.6c1.8,2,4.2,2.9,7,2.9c3.3,0,8.4-0.8,11.8-4.4c0-0.4,0-0.7,0-1.1C118.1,78.3,118.1,76.1,118.3,73.6z"/>
	<path fill="#FFFFFF" d="M104.8,79c5.2-3.3,11.6-7.2,11.6-13.8c0-4.5-3.2-7.4-7.7-7.4c-7.9,0-12,8-12,16c0,1.9,0.2,3.6,0.7,5
		c1.3-0.8,2.6-1.6,3.8-2.2C101.6,76.4,104.8,79,104.8,79z M109.1,63.4c1.4,0,2.2,1.2,2.2,2.7c0,3.5-4.7,7.6-7.8,9.4
		C101.4,70.2,105.3,63.4,109.1,63.4z"/>
	<path fill="#FFFFFF" d="M101.2,76.6c-1.3,0.6-2.5,1.5-3.8,2.2c0.5,1.5,1.1,2.8,2,3.8c3.3-1.8,5.4-3.6,5.4-3.6
		S101.6,76.4,101.2,76.6z"/>
	<path fill="#FFFFFF" d="M139.6,80.6c-1,0-1.6-1.1-1.6-3.3c0-3.3,1.6-9.4,1.6-14.8c0-2.5-0.9-4.7-3.2-4.7c-6.1,0-9.7,10.2-12,14.6
		c0.4-2.5,1.9-8.4,1.9-12.1c0-1.5-0.9-2.5-2.1-2.5c-4.4,0-5.7,8.7-6.1,15.7c0.4-0.5,1.1-0.6,1.5-0.6c0.7,0,1.2,0.6,1.2,1.6
		c0,1,0,2-1.1,4c-0.5,0.9-1.1,1.7-1.8,2.5c0.1,2.8,0.9,5.1,3.7,5.1c1.6,0,2.4-0.8,3-2.1l8.2-15.3c-0.5,3.1-0.9,6.3-0.9,9.6
		c0,4.7,1.6,8.1,5.9,8.1c2.2,0,4.6-1.4,5.6-3.4c-0.6-0.9-1.1-2.1-1.4-3.3C141.3,80,140.8,80.6,139.6,80.6z"/>
	<path fill="#FFFFFF" d="M121,74.6c0-0.9-0.5-1.6-1.2-1.6c-0.4,0-1.1,0.1-1.5,0.6c-0.1,2.5-0.2,4.8-0.2,6.4c0,0.4,0,0.7,0,1.1
		c0.7-0.7,1.3-1.5,1.8-2.5C121,76.6,121,75.6,121,74.6z"/>
	<path fill="#FFFFFF" d="M168.8,80c-2.9,0-3.4-2.6-3.4-5.4c0-1.8,0.3-3.7,0.9-5.1c3.9-9.4,10.1-18.5,10.1-31.3c0-4.2-1-8.7-5.1-8.7
		c-1.3,0-2.5,0.4-3.7,1.2c-5.3,3.5-8.4,11-9.8,19.3c2.4,6.9,3.7,14.3,3.7,22c0,3.7-0.3,7.3-0.9,10.8c1.2,1.8,3.1,3.3,5.5,3.3
		c3.4,0,7.3-4.2,10.6-8.2c-0.3-1.5-0.6-3-0.7-4.4C173.7,76.4,170.7,80,168.8,80z M164.1,63.6c0-5.2,0.3-27.2,5.9-27.2
		c1,0,1.1,1.4,1.1,2.8c0,9.9-3.8,18.7-7,25.9L164.1,63.6L164.1,63.6z"/>
	<path fill="#FFFFFF" d="M157.8,50c-0.5,3.1-0.8,6.3-0.9,9.4c-8.3,0.8-15,7.8-15,16.9c0,1.2,0.1,2.4,0.4,3.4c0.1,0,0.2-0.1,0.3-0.1
		c0.8,0,1.6,0.4,1.6,1.4c0,0.7-0.2,1.3-0.5,1.9c1.2,1.8,3.1,3,5.7,3c4.5,0,7.8-2.9,10.2-5.2c0.3,0.7,0.6,1.3,1,1.9
		c0.6-3.5,0.9-7.1,0.9-10.8C161.5,64.3,160.2,56.9,157.8,50z M151.3,80.5c-1.7,0-2.4-1.4-2.4-3.4c0-5.9,3.9-11.2,8.1-13.2
		c0,0,0.3,11.8,0.4,12.6C156.2,78,154.1,80.5,151.3,80.5z"/>
	<path fill="#FFFFFF" d="M142.6,79.8c-0.1,0-0.2,0-0.3,0.1c0.3,1.2,0.8,2.3,1.4,3.3c0.3-0.6,0.5-1.2,0.5-1.9
		C144.2,80.2,143.4,79.8,142.6,79.8z"/>
	<path fill="#FFFFFF" d="M186.7,79.8c-2.9,0-3.2-4.5-3.2-7.3c0-1.1,0.1-2.5,0.5-3.1c6.5-8.1,14.8-19.1,14.8-33.2
		c0-3.4-0.9-6.7-4.2-6.7c-4.1,0-6.9,2.4-8.9,5.1c-6.3,8-9.7,22.1-9.7,36.2c0,0.8,0,1.7,0.1,2.6c1.1-1.4,2.1-2.7,2.7-3.2
		c0.9-0.7,1.4-3.6,2-3.6c1,0,1.5,1.9,1.5,3.5c0,0.8-0.1,1.6-0.5,1.9c-1.4,1.3-3.1,3.5-5,5.9c1,4.4,3.1,8.3,6.7,8.3
		c2.9,0,6.1-2.2,8.8-5.1c-0.3-1-0.5-2.1-0.5-3.2c0-0.8,0-1.6,0.1-2.4C190.2,77.7,188.4,79.8,186.7,79.8z M183.2,64.3
		c0-6.9,2.5-26.5,9.1-26.5c0.6,0,0.9,0.6,0.9,1.4c0,1.2-0.4,2.5-0.7,3.9C190.4,50.8,186.8,58,183.2,64.3z"/>
	<path fill="#FFFFFF" d="M181.8,72c0.3-0.3,0.5-1,0.5-1.9c0-1.6-0.5-3.5-1.5-3.5c-0.6,0-1.1,2.9-2,3.6c-0.6,0.5-1.6,1.8-2.7,3.2
		c0.1,1.4,0.4,2.9,0.7,4.4C178.7,75.5,180.4,73.2,181.8,72z"/>
	<path fill="#FFFFFF" d="M226,77.1c0,0.4-0.1,0.9-0.1,1.3c0,0,0,0,0,0C226,77.9,226,77.5,226,77.1z"/>
	<path fill="#FFFFFF" d="M226.2,72c0,1.1,0,2.2-0.1,3.3C226.2,74.2,226.2,73.1,226.2,72z"/>
	<path fill="#FFFFFF" d="M226.2,70.7C226.2,70.7,226.2,70.7,226.2,70.7c0,0.4,0,0.9,0,1.3C226.2,71.6,226.2,71.1,226.2,70.7z"/>
	<path fill="#FFFFFF" d="M226.1,75.3c0.1-1.1,0.1-2.2,0.1-3.3c0-0.4,0-0.8,0-1.3c-3.7,3.3-11.1,9.9-13.6,12c0.5-3.3,1-5.9,1.5-8.8
		c0.7-4.2,2.4-9,2.4-13c0-1.2-1-1.6-2.2-1.6c-2.7,0-4.9,1.9-5.5,4.2l-2.1,8.7c-0.6,2.7-1.9,8.3-5.1,8.3c-1.9,0-2.3-2-2.3-3.9
		c0-3.8,0.9-7.7,1.8-10.8c0.5-1.7,1.4-3,1.4-4.7c0-1.4-1.1-2.1-2.5-2.1c-2,0-3.7,1.3-4.4,2.7c-2,4-3.4,8.2-3.7,13.9
		c1.2-1.6,2.3-3.2,3.2-4.2c0.5-0.4,1.1-2.1,1.5-2.1c0.7,0,1.3,1.5,1.3,2.9c0,0.3,0,0.5-0.1,0.7c-0.8,2.4-2.9,5.5-5.5,8.2
		c1,3,3.5,5.1,6.9,5.1c2.7,0,5-1.7,6.7-3.2l-0.8,3.6c-4.2,3.4-8.3,6.4-11.7,10.6c-2.1,2.6-5.3,6.2-5.3,10.3s2.6,5.9,6.6,5.9
		c12,0,15.1-13.8,17-24.1c2.3-1.6,9.6-7.3,14.3-10.9c0-0.4,0.1-0.9,0.1-1.3C226.1,76.5,226.1,75.9,226.1,75.3z M195,107.8
		c-0.8,0-1.2-0.4-1.2-1.1c0-0.4,0.1-1,0.4-1.7c1.9-4.5,5.9-8.7,9.8-11.3C203.1,98.4,200.8,107.8,195,107.8z"/>
	<path fill="#FFFFFF" d="M192.3,81c2.5-2.6,4.6-5.8,5.5-8.2c0-0.2,0.1-0.5,0.1-0.7c0-1.4-0.5-2.9-1.3-2.9c-0.4,0-0.9,1.8-1.5,2.1
		c-0.9,0.9-2,2.5-3.2,4.2c0,0.8-0.1,1.5-0.1,2.4C191.8,79,192,80.1,192.3,81z"/>
</g>
</svg>
