<?xml version="1.0" encoding="utf-8"?>
<!-- Generator: Adobe Illustrator 17.1.0, SVG Export Plug-In . SVG Version: 6.00 Build 0)  -->
<!DOCTYPE svg PUBLIC "-//W3C//DTD SVG 1.1//EN" "http://www.w3.org/Graphics/SVG/1.1/DTD/svg11.dtd">
<svg version="1.1" id="Layer_1" xmlns="http://www.w3.org/2000/svg" xmlns:xlink="http://www.w3.org/1999/xlink" x="0px" y="0px"
	 viewBox="300 324.2 150 101.5" enable-background="new 300 324.2 150 101.5" xml:space="preserve">
<g>
	<g>
		<path fill="#2992D0" d="M348.5,375c0-19.3,10.7-36,26.5-44.6c-7.2-3.9-15.5-6.1-24.2-6.1c-28,0-50.8,22.7-50.8,50.8
			c0,28,22.7,50.8,50.8,50.8c8.8,0,17-2.2,24.2-6.1C359.2,411,348.5,394.3,348.5,375z"/>
		<path fill="#50B748" d="M399.2,324.2c-8.8,0-17,2.2-24.2,6.1c15.8,8.6,26.5,25.4,26.5,44.6c0,19.3-10.7,36-26.5,44.6
			c7.2,3.9,15.5,6.1,24.2,6.1c28,0,50.8-22.7,50.8-50.8C450,347,427.3,324.2,399.2,324.2z"/>
		<path fill="#15683C" d="M401.5,375c0-19.3-10.7-36-26.5-44.6c-15.8,8.6-26.5,25.4-26.5,44.6c0,19.3,10.7,36,26.5,44.6
			C390.8,411,401.5,394.3,401.5,375z"/>
	</g>
	<g>
		<path fill="#FFFFFF" d="M333.8,395.6h-4.3V406h4.3c3.2,0,5.6-2,5.6-5.2C339.3,397.6,337,395.6,333.8,395.6z M333.8,403.6h-1.7V398
			h1.7c1.9,0,2.8,1.2,2.8,2.8C336.6,402.3,335.6,403.6,333.8,403.6z"/>
		<polygon fill="#FFFFFF" points="340.7,406 348.2,406 348.2,403.6 343.3,403.6 343.3,401.9 348.1,401.9 348.1,399.6 343.3,399.6 
			343.3,398 348.2,398 348.2,395.6 340.7,395.6 		"/>
		<path fill="#FFFFFF" d="M352.1,398.5c0-0.4,0.3-0.7,1.1-0.7c1,0,2.2,0.4,3,1.1l1.5-2c-1.1-0.9-2.5-1.4-4.2-1.4
			c-2.6,0-4.1,1.5-4.1,3.3c0,4,5.8,2.8,5.8,4.2c0,0.5-0.6,0.8-1.5,0.8c-1.4,0-2.6-0.6-3.3-1.4l-1.4,2.1c1,1,2.5,1.6,4.6,1.6
			c2.8,0,4.3-1.4,4.3-3.5C357.9,398.9,352.1,399.8,352.1,398.5z"/>
		<rect x="359.2" y="395.6" fill="#FFFFFF" width="2.7" height="10.3"/>
		<path fill="#FFFFFF" d="M368.3,402.4h2.3v0.8c-0.4,0.3-1.1,0.6-1.9,0.6c-1.7,0-2.9-1.3-2.9-3c0-1.7,1.2-3,2.9-3
			c1,0,1.8,0.6,2.2,1.3l2.2-1.2c-0.7-1.3-2.1-2.5-4.4-2.5c-3.1,0-5.6,2.1-5.6,5.3c0,3.3,2.5,5.3,5.6,5.3c1.9,0,3.5-0.8,4.6-2V400h-5
			V402.4z"/>
		<polygon fill="#FFFFFF" points="381.8,401.3 377.6,395.6 374.9,395.6 374.9,406 377.5,406 377.5,400 381.9,406 384.5,406 
			384.5,395.6 381.8,395.6 		"/>
		<path fill="#FFFFFF" d="M395.4,397.8c1,0,1.9,0.7,2.2,1.5l2.3-1.1c-0.7-1.3-2-2.8-4.5-2.8c-3.2,0-5.6,2.2-5.6,5.3
			c0,3.2,2.4,5.3,5.6,5.3c2.5,0,3.8-1.5,4.5-2.8l-2.3-1.1c-0.3,0.8-1.2,1.5-2.2,1.5c-1.7,0-2.9-1.3-2.9-3
			C392.5,399.1,393.7,397.8,395.4,397.8z"/>
		<path fill="#FFFFFF" d="M406,395.5c-3.2,0-5.5,2.2-5.5,5.3c0,3.1,2.4,5.3,5.5,5.3c3.2,0,5.5-2.2,5.5-5.3
			C411.5,397.7,409.2,395.5,406,395.5z M406,403.8c-1.7,0-2.8-1.3-2.8-3c0-1.7,1.1-3,2.8-3c1.7,0,2.8,1.3,2.8,3
			C408.8,402.5,407.7,403.8,406,403.8z"/>
		<path fill="#FFFFFF" d="M350.2,361.6c2.4,0,4.1-1.5,4.1-3.9c0-2.2-1.5-3.1-3.5-3.1c-2.4,0-4.3,1.4-4.3,3.7
			C346.4,360.4,347.9,361.6,350.2,361.6z"/>
		<path fill="#FFFFFF" d="M450,374c-2.7,2.5-8.3,7.4-10.2,9c0.4-2.5,0.8-4.4,1.1-6.6c0.5-3.1,1.8-6.7,1.8-9.7c0-0.9-0.7-1.2-1.6-1.2
			c-2,0-3.7,1.4-4.1,3.1l-1.5,6.5c-0.5,2-1.4,6.2-3.8,6.2c-1.4,0-1.7-1.5-1.7-2.9c0-2.9,0.7-5.7,1.3-8.1c0.4-1.3,1-2.2,1-3.5
			c0-1.1-0.8-1.6-1.9-1.6c-1.5,0-2.8,0.9-3.3,2c-1.5,3-2.5,6.2-2.8,10.4c-1.3,1.7-2.6,3.2-3.8,3.2c-2.2,0-2.4-3.4-2.4-5.4
			c0-0.8,0.1-1.9,0.4-2.3c4.8-6.1,11-14.3,11-24.9c0-2.6-0.6-5-3.2-5c-3.1,0-5.1,1.8-6.7,3.8c-4.7,6-7.3,16.5-7.3,27.1
			c0,0.6,0,1.3,0.1,2c-1.7,2.2-4,4.9-5.4,4.9c-2.2,0-2.6-1.9-2.6-4.1c0-1.4,0.2-2.8,0.7-3.8c2.9-7,7.5-13.8,7.5-23.4
			c0-3.1-0.7-6.5-3.8-6.5c-0.9,0-1.9,0.3-2.7,0.9c-5.4,3.5-7.8,12.8-8,21.5c-6.2,0.6-11.2,5.8-11.2,12.7c0,0.9,0.1,1.7,0.3,2.6
			c-0.7,0.1-1.1,0.6-2,0.6c-0.7,0-1.2-0.8-1.2-2.5c0-2.5,1.2-7.1,1.2-11.1c0-1.9-0.7-3.5-2.4-3.5c-4.6,0-7.3,7.7-9,10.9
			c0.3-1.9,1.4-6.3,1.4-9.1c0-1.1-0.6-1.9-1.5-1.9c-3.2,0-4.2,6.5-4.5,11.7c-0.1,0.1-0.1,0.1-0.1,0.2c-1.3,3.9-4.8,5-7.3,5
			c-1.2,0-1.9-0.3-2.6-1.1c3.9-2.5,8.7-5.4,8.7-10.3c0-3.4-2.4-5.5-5.8-5.5c-5.9,0-9,6-9,11.9c0,1.4,0.2,2.7,0.5,3.7
			c-1.6,1-3.3,1.7-5.2,1.3c-1-0.2-1.1-1.1-1.1-2.2c0-4.9,3.3-9,3.3-13.6c0-0.9-0.5-1.3-1.6-1.3c-1.4,0-3,0.7-3.2,2.1
			c-0.3,1.1-0.6,2.1-0.9,3.2c-1,1.8-2.7,4-3.7,4c-1.1,0-1.9-0.6-1.9-2.4c0-2,0.7-3.8,0.7-4.9c0-1.3-0.9-2.1-2.2-2.1
			c-3.4,0-4.9,3.9-6.1,6.3h-0.2c0-0.7,0-1.5,0-2.3v-2c0-1.5,0-2-1.6-2c-1.4,0-1.8,0.4-2.2,1.5c-2.5,5-4.6,6.8-7.7,6.7
			c-0.9,0-1.9-0.1-2.5-0.4c4.3-5.1,11.8-14.1,11.8-22.5c0-3-1.7-5.1-4.4-5.1c-12.3,0-16.5,29.4-16.5,41.7c0,5.2,0.6,12.5,5.2,12.5
			c5.7,0,8-7.4,8-12.7c0-4-1.4-7.4-2.6-10c2.1-0.1,4.5-0.6,6.6-1.9c-0.3,2.2-0.5,4.5-0.5,6.7c0,2.4,0.4,4.6,2.8,4.6
			c1.6,0,2-1.7,2.5-3l3.9-11h0.4c0.5,3.8,1.3,6.8,5.6,6.8c1,0,2-0.5,2.8-1.3c-0.2,1.3-0.3,2.6-0.3,3.9c0,2.9,1.5,4.4,3.5,4.4
			c3.3,0,6.4-1.2,8.8-2.4c1.3,1.5,3.2,2.2,5.2,2.2c2.5,0,6.3-0.6,8.8-3.3c0.1,2.1,0.7,3.8,2.8,3.8c1.2,0,1.8-0.6,2.3-1.6l6.1-11.5
			c-0.4,2.3-0.7,4.7-0.7,7.2c0,3.5,1.2,6.1,4.4,6.1c1.6,0,3.5-1,4.2-2.5c0.9,1.4,2.3,2.2,4.3,2.2c3.4,0,5.8-2.2,7.6-3.9
			c0.8,1.9,2.4,3.9,4.9,3.9c2.6,0,5.5-3.2,7.9-6.2c0.8,3.3,2.3,6.2,5,6.2c2.1,0,4.6-1.7,6.6-3.8c0.8,2.3,2.6,3.8,5.2,3.8
			c2,0,3.7-1.3,5-2.4l-0.6,2.7c-3.1,2.6-6.2,4.8-8.7,7.9c-1.6,1.9-4,4.6-4,7.7s1.9,4.4,4.9,4.4c8.9,0,11.3-10.3,12.7-18.1
			c1.7-1.2,7.2-5.5,10.7-8.2c0.1-1.6,0.2-3.2,0.2-4.8C450,374.7,450,374.4,450,374z M324.1,349.6c0.9,0,1.1,1.1,1.1,2.2
			c0,5.8-6.8,14.3-10.2,18.6C315.5,368.5,319,349.6,324.1,349.6z M316.9,386.9c0,2.4,0,7-2.6,7c-0.9,0-0.9-4.2-0.9-7.3
			c0-4.2,0.4-8.3,0.6-12.5c1.6,3,3,7.4,3,12.8V386.9z M362.3,368.6c1.1,0,1.6,0.9,1.6,2c0,2.6-3.5,5.7-5.8,7
			C356.6,373.7,359.5,368.6,362.3,368.6z M394,381.3c-1.3,0-1.8-1.1-1.8-2.6c0-4.5,2.9-8.4,6-9.9c0,0,0.2,8.8,0.3,9.4
			C397.6,379.5,396,381.3,394,381.3z M403.5,368.7c0-3.9,0.2-20.4,4.4-20.4c0.8,0,0.8,1.1,0.8,2.1c0,7.4-2.8,14-5.2,19.4V368.7z
			 M417.8,369.2c0-5.2,1.9-19.9,6.8-19.9c0.5,0,0.7,0.5,0.7,1.1c0,0.9-0.3,1.9-0.6,2.9C423.2,359.2,420.5,364.5,417.8,369.2z
			 M426.6,401.8c-0.6,0-0.9-0.3-0.9-0.8c0-0.3,0.1-0.8,0.3-1.3c1.4-3.4,4.4-6.5,7.3-8.5C432.7,394.7,431,401.8,426.6,401.8z"/>
	</g>
</g>
</svg>
