<?xml version="1.0" encoding="utf-8"?>
<!-- Generator: Adobe Illustrator 17.1.0, SVG Export Plug-In . SVG Version: 6.00 Build 0)  -->
<!DOCTYPE svg PUBLIC "-//W3C//DTD SVG 1.1//EN" "http://www.w3.org/Graphics/SVG/1.1/DTD/svg11.dtd">
<svg version="1.1" id="Layer_1" xmlns="http://www.w3.org/2000/svg" xmlns:xlink="http://www.w3.org/1999/xlink" x="0px" y="0px"
	 viewBox="0 0 128.674 89" enable-background="new 0 0 128.674 89" xml:space="preserve">
<path fill="#FFFFFF" stroke="#FFFFFF" stroke-width="4" stroke-miterlimit="10" d="M126.149,47.622
	c0.027-0.361,0.059-0.72,0.076-1.083c0.033-0.676,0.052-1.355,0.052-2.039c0-0.266-0.005-0.531-0.01-0.795
	c-0.003,0.003-0.007,0.006-0.01,0.009C125.836,20.92,107.239,2.569,84.346,2.569c-7.246,0-14.062,1.838-20.008,5.073
	c-5.947-3.235-12.763-5.073-20.008-5.073c-23.158,0-41.931,18.773-41.931,41.932c0,23.158,18.773,41.931,41.931,41.931
	c7.246,0,14.062-1.838,20.008-5.073c5.947,3.235,12.763,5.073,20.008,5.073c21.829,0,39.756-16.683,41.741-37.994
	c0.002-0.001,0.003-0.002,0.005-0.004C126.117,48.165,126.129,47.892,126.149,47.622z"/>
<g>
	<path fill="#2992D0" d="M50.001,68.543c-0.465,1.039-1.604,1.676-3.316,1.676c-1.725,0-2.927-0.549-3.783-1.354l1.163-1.713
		c0.614,0.614,1.559,1.125,2.735,1.125c0.741,0,1.201-0.255,1.201-0.678c0-1.124-4.818-0.191-4.818-3.476
		c0-1.298,0.998-2.46,2.813-2.666c-1.221-2.756-2.158-5.664-2.764-8.694c-0.84,0.175-1.711,0.288-2.605,0.288
		c-1.675,0-2.874-1.27-2.874-3.636c0-1.102,0.091-2.178,0.242-3.231c-0.695,0.628-1.476,1.07-2.315,1.07
		c-3.586,0-4.241-2.408-4.641-5.575h-0.291l-3.258,9.083c-0.382,1.056-0.728,2.457-2.057,2.457c-1.984,0-2.312-1.82-2.312-3.804
		c0-1.833,0.149-3.73,0.411-5.567c-1.743,1.089-3.705,1.538-5.477,1.599c1.019,2.221,2.166,4.969,2.166,8.3
		c0,4.332-1.875,10.466-6.607,10.466c-3.786,0-4.296-5.97-4.296-10.302c0-10.175,3.495-34.474,13.615-34.474
		c2.275,0,3.64,1.711,3.64,4.223c0,6.935-6.188,14.397-9.774,18.584c0.528,0.182,1.365,0.276,2.075,0.291
		c2.547,0.054,4.247-1.397,6.34-5.551c0.346-0.874,0.619-1.238,1.802-1.238c1.274,0,1.311,0.382,1.311,1.656v1.62
		c0,0.637,0.018,1.274,0.036,1.893h0.2c0.965-1.948,2.166-5.169,5.005-5.169c1.037,0,1.784,0.673,1.784,1.711
		c0,0.91-0.564,2.39-0.564,4.046c0,1.474,0.673,1.984,1.565,1.984c0.832,0,2.223-1.847,3.038-3.329
		c0.259-0.897,0.523-1.779,0.768-2.647c0.237-1.183,1.529-1.766,2.676-1.766c0.187,0,0.343,0.02,0.49,0.047
		c0.171-0.809,0.37-1.607,0.587-2.398c-0.014,0-0.026,0.003-0.039,0.003c-1.948,0-3.131-0.928-3.131-2.767
		c0-1.893,1.565-3.04,3.568-3.04c0.576,0,1.094,0.098,1.534,0.289c3.733-8.636,10.281-15.77,18.493-20.238
		c-5.947-3.235-12.763-5.073-20.008-5.073c-23.158,0-41.931,18.773-41.931,41.932c0,23.158,18.773,41.931,41.931,41.931
		c7.246,0,14.062-1.838,20.008-5.073C58.621,78.249,53.718,73.843,50.001,68.543z M30.287,70.067h-3.591v-8.525h3.578
		c2.684,0,4.614,1.611,4.614,4.256C34.888,68.443,32.958,70.067,30.287,70.067z M42.237,63.459h-4.051v1.329h3.962v1.917h-3.962
		v1.445h4.051v1.917h-6.249v-8.525h6.249V63.459z"/>
	<path fill="#2992D0" d="M45.42,63.945c0,0.5,1.099,0.584,2.247,0.876c-0.258-0.465-0.504-0.938-0.745-1.414
		c-0.196-0.03-0.391-0.05-0.581-0.05C45.701,63.357,45.42,63.574,45.42,63.945z"/>
	<path fill="#2992D0" d="M22.26,23.531c-4.168,0-7.08,15.58-7.554,17.2c2.839-3.513,8.464-10.557,8.464-15.344
		C23.17,24.405,23.006,23.531,22.26,23.531z"/>
	<path fill="#2992D0" d="M13.414,54.073c0,2.548,0.073,6.043,0.783,6.043c2.166,0,2.184-3.75,2.184-5.77v-0.091
		c0-4.441-1.165-8.027-2.475-10.539C13.742,47.211,13.414,50.597,13.414,54.073z"/>
	<path fill="#2992D0" d="M42.31,49.784c0.154,0.036,0.306,0.062,0.457,0.079c-0.224-1.757-0.353-3.544-0.353-5.362
		c0-0.461,0.02-0.918,0.035-1.375c-0.571,1.554-1.067,3.149-1.067,4.874C41.382,48.91,41.495,49.594,42.31,49.784z"/>
	<path fill="#2992D0" d="M30.287,63.459h-1.393v4.691h1.38c1.495,0,2.364-1.087,2.364-2.352
		C32.638,64.481,31.846,63.459,30.287,63.459z"/>
	<path fill="#50B748" d="M84.002,30.928c0.878-5.142,2.818-9.791,6.072-11.929c0.728-0.473,1.474-0.728,2.257-0.728
		c2.512,0,3.131,2.785,3.131,5.351c0,7.918-3.804,13.542-6.225,19.33c-0.346,0.837-0.546,2.02-0.546,3.149
		c0,1.747,0.346,3.349,2.13,3.349c1.145,0,2.996-2.255,4.435-4.052c-0.05-0.57-0.077-1.121-0.077-1.626
		c0-8.719,2.093-17.419,6.006-22.37c1.274-1.62,2.967-3.131,5.515-3.131c2.093,0,2.621,2.002,2.621,4.114
		c0,8.719-5.115,15.526-9.119,20.549c-0.273,0.346-0.328,1.22-0.328,1.893c0,1.693,0.218,4.496,2.002,4.496
		c1.002,0,2.143-1.315,3.178-2.68c0.193-3.471,1.07-6.085,2.288-8.569c0.455-0.892,1.511-1.675,2.73-1.675
		c0.855,0,1.547,0.437,1.547,1.31c0,1.074-0.546,1.838-0.855,2.912c-0.546,1.966-1.092,4.332-1.092,6.698
		c0,1.165,0.255,2.403,1.42,2.403c1.966,0,2.73-3.44,3.131-5.133l1.274-5.351c0.328-1.42,1.693-2.566,3.385-2.566
		c0.728,0,1.329,0.291,1.329,1.019c0,2.457-1.037,5.46-1.456,8.027c-0.291,1.802-0.619,3.367-0.928,5.424
		c1.56-1.3,6.164-5.366,8.43-7.429C125.836,20.92,107.239,2.569,84.346,2.569c-7.246,0-14.062,1.838-20.008,5.073
		C73.497,12.625,80.581,20.927,84.002,30.928z"/>
	<path fill="#50B748" d="M105.898,24.223c0-0.491-0.182-0.874-0.564-0.874c-4.114,0-5.642,12.122-5.642,16.4
		c2.221-3.913,4.459-8.336,5.752-13.105C105.68,25.77,105.898,24.969,105.898,24.223z"/>
	<path fill="#50B748" d="M91.512,22.494c-3.458,0-3.622,13.633-3.622,16.818v0.928c1.948-4.441,4.296-9.883,4.296-15.999
		C92.185,23.368,92.149,22.494,91.512,22.494z"/>
	<path fill="#50B748" d="M126.225,46.539c-0.018,0.363-0.049,0.722-0.076,1.083C126.175,47.261,126.208,46.903,126.225,46.539z"/>
	<path fill="#50B748" d="M106.76,70.109c-2.475,0-4.077-1.056-4.077-3.622s1.984-4.787,3.294-6.389
		c2.093-2.566,4.641-4.441,7.226-6.553l0.491-2.239c-1.019,0.91-2.439,1.948-4.114,1.948c-2.114,0-3.636-1.296-4.257-3.166
		c-1.685,1.75-3.699,3.129-5.469,3.129c-2.229,0-3.524-2.421-4.166-5.111c-2.041,2.469-4.422,5.092-6.544,5.092
		c-1.532,0-2.669-0.899-3.421-2.02c-0.587,3.666-1.654,7.17-3.127,10.454c1.154,0.393,1.863,1.229,2.265,2.042l-1.892,0.908
		c-0.21-0.508-0.673-0.952-1.236-1.141c-0.71,1.4-1.494,2.755-2.352,4.059c0.423,0.478,1.034,0.775,1.761,0.775
		c0.818,0,1.547-0.562,1.827-1.24l1.892,0.895c-0.549,1.087-1.662,2.288-3.719,2.288c-1.155,0-2.174-0.364-2.968-0.977
		c-3.653,4.988-8.376,9.144-13.839,12.115c5.947,3.235,12.763,5.073,20.008,5.073c21.829,0,39.756-16.683,41.741-37.994
		c-2.912,2.232-7.418,5.733-8.843,6.746C116.115,61.591,114.15,70.109,106.76,70.109z M89.937,70.219
		c-2.607,0-4.562-1.815-4.562-4.409c0-2.594,1.956-4.409,4.562-4.409c2.608,0,4.55,1.815,4.55,4.409
		C94.487,68.405,92.545,70.219,89.937,70.219z"/>
	<path fill="#50B748" d="M106.523,64.885c-0.182,0.419-0.273,0.783-0.273,1.056c0,0.455,0.237,0.673,0.728,0.673
		c3.567,0,5.024-5.806,5.606-8.737C110.182,59.479,107.706,62.118,106.523,64.885z"/>
	<path fill="#50B748" d="M89.937,63.344c-1.406,0-2.326,1.074-2.326,2.466c0,1.38,0.92,2.466,2.326,2.466
		c1.406,0,2.314-1.086,2.314-2.466C92.251,64.418,91.344,63.344,89.937,63.344z"/>
	<path fill="#00733B" d="M78.534,47.612c0,1.238,0.382,2.13,1.456,2.13c1.693,0,3.003-1.511,3.804-2.512
		c-0.073-0.491-0.273-7.772-0.273-7.772C80.937,40.714,78.534,43.935,78.534,47.612z"/>
	<path fill="#00733B" d="M78.766,65.81c0,0.666,0.23,1.254,0.617,1.691c0.857-1.304,1.641-2.659,2.352-4.059
		c-0.188-0.063-0.386-0.098-0.591-0.098C79.751,63.344,78.766,64.405,78.766,65.81z"/>
	<path fill="#00733B" d="M45.845,27.879c0.839,0.365,1.378,1.089,1.378,2.259c0,2.043-1.33,3.239-3.31,3.255
		c-0.217,0.791-0.416,1.589-0.587,2.398c0.54,0.1,0.82,0.39,0.82,0.991c0,2.184-0.919,4.225-1.697,6.343
		c-0.015,0.458-0.035,0.914-0.035,1.375c0,1.818,0.129,3.605,0.353,5.362c1.38,0.156,2.644-0.437,3.868-1.153
		c-0.26-0.872-0.409-1.89-0.409-3.081c0-4.914,2.548-9.865,7.426-9.865c2.803,0,4.787,1.747,4.787,4.55
		c0,4.059-3.951,6.483-7.195,8.522c0.548,0.702,1.115,0.942,2.135,0.942c2.075,0,5.017-0.946,6.068-4.144
		c0.022-0.067,0.067-0.105,0.103-0.156c0.246-4.344,1.067-9.734,3.756-9.734c0.746,0,1.274,0.619,1.274,1.547
		c0,2.312-0.892,5.952-1.165,7.481c1.401-2.694,3.659-9.028,7.426-9.028c1.401,0,1.984,1.347,1.984,2.876
		c0,3.313-1.019,7.099-1.019,9.137c0,1.365,0.346,2.057,0.965,2.057c0.703,0,1.039-0.393,1.638-0.477
		c-0.161-0.67-0.244-1.388-0.244-2.126c0-5.642,4.15-9.993,9.283-10.466c0.044-1.94,0.228-3.911,0.554-5.817
		C80.581,20.927,73.497,12.625,64.337,7.642C56.125,12.109,49.578,19.244,45.845,27.879z"/>
	<path fill="#00733B" d="M78.176,69.243c-1.008-0.778-1.645-1.967-1.645-3.432c0-2.633,1.993-4.409,4.613-4.409
		c0.552,0,1.031,0.088,1.454,0.232c1.473-3.284,2.54-6.788,3.127-10.454c-0.258-0.384-0.471-0.793-0.638-1.202
		c-1.474,1.438-3.531,3.24-6.298,3.24c-1.601,0-2.763-0.727-3.522-1.853c-0.629,1.208-2.135,2.072-3.478,2.072
		c-2.639,0-3.64-2.111-3.64-5.024c0-2.075,0.255-4.023,0.546-5.952l-5.06,9.465c-0.4,0.801-0.855,1.292-1.875,1.292
		c-1.757,0-2.213-1.428-2.295-3.133c-2.096,2.228-5.23,2.75-7.267,2.75c-1.694,0-3.228-0.551-4.319-1.792
		c-1.3,0.689-2.895,1.355-4.645,1.72c0.606,3.03,1.544,5.938,2.764,8.694c0.186-0.021,0.371-0.043,0.574-0.043
		c1.368,0,2.557,0.409,3.464,1.189l-1.201,1.648c-0.554-0.465-1.238-0.741-1.911-0.845c0.241,0.476,0.487,0.949,0.745,1.414
		c1.256,0.32,2.571,0.892,2.571,2.549c0,0.431-0.081,0.825-0.237,1.174c3.717,5.299,8.62,9.706,14.336,12.815
		C69.8,78.386,74.523,74.231,78.176,69.243z M53.459,70.067h-2.198v-8.525h2.198V70.067z M62.943,68.558
		c-0.908,1.01-2.16,1.661-3.77,1.661c-2.543,0-4.613-1.699-4.613-4.409c0-2.709,2.07-4.409,4.613-4.409
		c1.904,0,3.055,1.01,3.642,2.071l-1.84,0.959c-0.319-0.563-0.97-1.087-1.802-1.087c-1.393,0-2.377,1.061-2.377,2.466
		c0,1.393,0.984,2.466,2.377,2.466c0.626,0,1.265-0.255,1.572-0.511v-0.665h-1.917v-1.93h4.115V68.558z M72.158,70.067h-2.121
		l-3.604-4.933v4.933h-2.198v-8.525h2.262l3.451,4.691v-4.691h2.21V70.067z"/>
	<path fill="#00733B" d="M55.2,40.877c0-0.965-0.455-1.693-1.329-1.693c-2.348,0-4.748,4.229-3.494,7.475
		C52.295,45.553,55.2,43.062,55.2,40.877z"/>
	<path fill="#FFFFFF" d="M30.274,61.541h-3.578v8.525h3.591c2.671,0,4.601-1.623,4.601-4.269
		C34.888,63.152,32.958,61.541,30.274,61.541z M30.274,68.15h-1.38v-4.691h1.393c1.559,0,2.351,1.022,2.351,2.339
		C32.638,67.063,31.769,68.15,30.274,68.15z"/>
	<polygon fill="#FFFFFF" points="35.988,70.067 42.237,70.067 42.237,68.15 38.186,68.15 38.186,66.705 42.148,66.705 
		42.148,64.788 38.186,64.788 38.186,63.459 42.237,63.459 42.237,61.541 35.988,61.541 	"/>
	<path fill="#FFFFFF" d="M43.184,64.123c0,3.285,4.818,2.352,4.818,3.476c0,0.422-0.46,0.678-1.201,0.678
		c-1.176,0-2.121-0.511-2.735-1.125l-1.163,1.713c0.856,0.805,2.057,1.354,3.783,1.354c1.712,0,2.851-0.638,3.316-1.676
		c-0.84-1.197-1.621-2.438-2.334-3.722c-1.148-0.293-2.247-0.376-2.247-0.876c0-0.37,0.281-0.588,0.92-0.588
		c0.19,0,0.386,0.02,0.581,0.05c-0.324-0.641-0.633-1.29-0.925-1.949C44.181,61.664,43.184,62.825,43.184,64.123z"/>
	<path fill="#FFFFFF" d="M48.832,64.251l1.201-1.648c-0.907-0.78-2.096-1.189-3.464-1.189c-0.203,0-0.388,0.022-0.574,0.043
		c0.292,0.659,0.601,1.309,0.925,1.949C47.594,63.51,48.278,63.786,48.832,64.251z"/>
	<path fill="#FFFFFF" d="M50.238,67.37c0-1.656-1.315-2.228-2.571-2.549c0.713,1.284,1.495,2.525,2.334,3.722
		C50.157,68.194,50.238,67.8,50.238,67.37z"/>
	<rect x="51.261" y="61.541" fill="#FFFFFF" width="2.198" height="8.525"/>
	<path fill="#FFFFFF" d="M58.827,67.101h1.917v0.665c-0.307,0.255-0.946,0.511-1.572,0.511c-1.393,0-2.377-1.074-2.377-2.466
		c0-1.406,0.984-2.466,2.377-2.466c0.831,0,1.482,0.524,1.802,1.087l1.84-0.959c-0.587-1.061-1.738-2.071-3.642-2.071
		c-2.543,0-4.613,1.7-4.613,4.409c0,2.71,2.07,4.409,4.613,4.409c1.61,0,2.862-0.652,3.77-1.661v-3.387h-4.115V67.101z"/>
	<polygon fill="#FFFFFF" points="69.947,66.232 66.496,61.541 64.234,61.541 64.234,70.067 66.433,70.067 66.433,65.133 
		70.037,70.067 72.158,70.067 72.158,61.541 69.947,61.541 	"/>
	<path fill="#FFFFFF" d="M82.971,64.584l1.892-0.908c-0.402-0.813-1.11-1.65-2.265-2.042c-0.274,0.611-0.562,1.214-0.864,1.809
		C82.298,63.632,82.761,64.076,82.971,64.584z"/>
	<path fill="#FFFFFF" d="M81.144,70.219c2.057,0,3.17-1.201,3.719-2.288l-1.892-0.895c-0.28,0.677-1.009,1.24-1.827,1.24
		c-0.727,0-1.338-0.297-1.761-0.775c-0.388,0.591-0.79,1.172-1.207,1.741C78.97,69.856,79.989,70.219,81.144,70.219z"/>
	<path fill="#FFFFFF" d="M76.531,65.81c0,1.465,0.637,2.655,1.645,3.432c0.417-0.569,0.819-1.15,1.207-1.741
		c-0.387-0.437-0.617-1.026-0.617-1.691c0-1.406,0.985-2.466,2.377-2.466c0.204,0,0.403,0.035,0.591,0.098
		c0.302-0.595,0.59-1.198,0.864-1.809c-0.423-0.144-0.902-0.232-1.454-0.232C78.524,61.401,76.531,63.178,76.531,65.81z"/>
	<path fill="#FFFFFF" d="M89.937,61.401c-2.607,0-4.562,1.815-4.562,4.409c0,2.594,1.956,4.409,4.562,4.409
		c2.608,0,4.55-1.815,4.55-4.409C94.487,63.216,92.545,61.401,89.937,61.401z M89.937,68.277c-1.406,0-2.326-1.086-2.326-2.466
		c0-1.393,0.92-2.466,2.326-2.466c1.406,0,2.314,1.074,2.314,2.466C92.251,67.191,91.344,68.277,89.937,68.277z"/>
	<path fill="#FFFFFF" d="M18.875,42.534c-0.71-0.015-1.547-0.109-2.075-0.291c3.586-4.186,9.774-11.649,9.774-18.584
		c0-2.512-1.365-4.223-3.64-4.223c-10.12,0-13.615,24.299-13.615,34.474c0,4.332,0.51,10.302,4.296,10.302
		c4.732,0,6.607-6.134,6.607-10.466c0-3.331-1.147-6.079-2.166-8.3c1.772-0.061,3.734-0.51,5.477-1.599
		c0.359-2.522,0.935-4.927,1.682-6.865C23.122,41.137,21.422,42.587,18.875,42.534z M22.26,23.531c0.746,0,0.91,0.874,0.91,1.857
		c0,4.787-5.624,11.831-8.464,15.344C15.18,39.112,18.092,23.531,22.26,23.531z M16.381,54.346c0,2.02-0.018,5.77-2.184,5.77
		c-0.71,0-0.783-3.495-0.783-6.043c0-3.477,0.328-6.862,0.491-10.357c1.31,2.512,2.475,6.098,2.475,10.539V54.346z"/>
	<path fill="#FFFFFF" d="M36.354,43.486c-0.892,0-1.565-0.51-1.565-1.984c0-1.656,0.564-3.136,0.564-4.046
		c0-1.037-0.746-1.711-1.784-1.711c-2.839,0-4.041,3.222-5.005,5.169h-0.2c-0.018-0.619-0.036-1.256-0.036-1.893v-1.62
		c0-1.274-0.036-1.656-1.311-1.656c-1.183,0-1.456,0.364-1.802,1.238c0.066-0.131,0.914-0.752,1.023-0.752
		c0.419,0,1.831,0.858,1.638,1.541c-0.848,2.994-2.469,4.905-4.343,6.076c-0.261,1.837-0.411,3.734-0.411,5.567
		c0,1.984,0.328,3.804,2.312,3.804c1.329,0,1.675-1.402,2.057-2.457l3.258-9.083h0.291c0.4,3.167,1.056,5.575,4.641,5.575
		c0.839,0,1.62-0.442,2.315-1.07c0.299-2.095,0.838-4.096,1.397-6.027C38.577,41.639,37.186,43.486,36.354,43.486z"/>
	<path fill="#FFFFFF" d="M27.875,37.771c0.193-0.683-1.219-1.541-1.638-1.541c-0.109,0-0.957,0.621-1.023,0.752
		c-0.748,1.938-1.324,4.343-1.682,6.865C25.406,42.676,27.027,40.766,27.875,37.771z"/>
	<path fill="#FFFFFF" d="M42.31,49.784c-0.815-0.19-0.928-0.874-0.928-1.784c0-1.725,0.496-3.32,1.067-4.874
		c0.081-2.506,0.375-4.958,0.877-7.334c-0.147-0.027-0.303-0.047-0.49-0.047c-1.147,0-2.439,0.582-2.676,1.766
		c-0.245,0.868-0.508,1.75-0.768,2.647c0.255-0.464,0.456-0.893,0.563-1.217c0.094-0.283,0.491,0.197,0.692,0.197
		c0.419,0,0.546,0.546,0.546,1.183c0,1.074-0.673,2.457-0.673,2.457c-0.534,0.935-1.418,2.408-2.524,3.407
		c-0.15,1.053-0.242,2.129-0.242,3.231c0,2.366,1.198,3.636,2.874,3.636c0.894,0,1.765-0.112,2.605-0.288
		c-0.191-0.955-0.341-1.924-0.465-2.901C42.616,49.845,42.464,49.819,42.31,49.784z"/>
	<path fill="#FFFFFF" d="M44.31,27.59c-2.002,0-3.568,1.147-3.568,3.04c0,1.838,1.183,2.767,3.131,2.767
		c0.014,0,0.026-0.003,0.039-0.003c0.519-1.895,1.164-3.737,1.932-5.514C45.405,27.688,44.886,27.59,44.31,27.59z"/>
	<path fill="#FFFFFF" d="M44.146,36.782c0-0.601-0.28-0.891-0.82-0.991c-0.502,2.376-0.796,4.828-0.877,7.334
		C43.227,41.007,44.146,38.966,44.146,36.782z"/>
	<path fill="#FFFFFF" d="M42.767,49.862c0.125,0.977,0.274,1.946,0.465,2.901c1.75-0.365,3.345-1.031,4.645-1.72
		c-0.533-0.606-0.957-1.379-1.242-2.335C45.411,49.425,44.147,50.018,42.767,49.862z"/>
	<path fill="#FFFFFF" d="M47.222,30.138c0-1.17-0.539-1.894-1.378-2.259c-0.768,1.777-1.413,3.619-1.932,5.514
		C45.892,33.377,47.222,32.181,47.222,30.138z"/>
	<path fill="#FFFFFF" d="M40.52,42.777c0,0,0.673-1.383,0.673-2.457c0-0.637-0.127-1.183-0.546-1.183c-0.2,0-0.598-0.48-0.692-0.197
		c-0.107,0.324-0.308,0.753-0.563,1.217c-0.559,1.931-1.098,3.932-1.397,6.027C39.102,45.185,39.986,43.712,40.52,42.777z"/>
	<path fill="#FFFFFF" d="M59.55,45.479c-0.036,0.05-0.081,0.089-0.103,0.156c-1.051,3.198-3.993,4.144-6.068,4.144
		c-1.019,0-1.586-0.24-2.135-0.942c0,0-1.317,1.122-3.368,2.208c1.091,1.241,2.625,1.792,4.319,1.792
		c2.037,0,5.171-0.522,7.267-2.75c-0.011-0.22-0.016-0.444-0.016-0.672C59.448,48.424,59.463,47.016,59.55,45.479z"/>
	<path fill="#FFFFFF" d="M51.245,48.836c3.244-2.039,7.195-4.464,7.195-8.522c0-2.803-1.984-4.55-4.787-4.55
		c-4.878,0-7.426,4.951-7.426,9.865c0,1.191,0.149,2.209,0.409,3.081c0.799-0.467,1.581-0.987,2.369-1.387
		C49.258,47.193,51.245,48.836,51.245,48.836z M53.871,39.185c0.874,0,1.329,0.728,1.329,1.693c0,2.184-2.905,4.676-4.823,5.782
		C49.123,43.414,51.523,39.185,53.871,39.185z"/>
	<path fill="#FFFFFF" d="M49.004,47.322c-0.788,0.399-1.57,0.919-2.369,1.387c0.285,0.956,0.709,1.729,1.242,2.335
		c2.051-1.086,3.368-2.208,3.368-2.208S49.258,47.193,49.004,47.322z"/>
	<path fill="#FFFFFF" d="M72.771,49.814c-0.619,0-0.965-0.692-0.965-2.057c0-2.039,1.019-5.824,1.019-9.137
		c0-1.529-0.582-2.876-1.984-2.876c-3.768,0-6.025,6.334-7.426,9.028c0.273-1.529,1.165-5.169,1.165-7.481
		c0-0.928-0.528-1.547-1.274-1.547c-2.689,0-3.51,5.39-3.756,9.734c0.227-0.32,0.683-0.354,0.935-0.354
		c0.455,0,0.764,0.382,0.764,0.965c0,0.637-0.021,1.264-0.679,2.475c-0.316,0.582-0.693,1.081-1.106,1.521
		c0.082,1.704,0.538,3.133,2.295,3.133c1.019,0,1.474-0.491,1.875-1.292l5.06-9.465c-0.291,1.929-0.546,3.877-0.546,5.952
		c0,2.912,1.001,5.024,3.64,5.024c1.343,0,2.849-0.864,3.478-2.072c-0.393-0.583-0.676-1.274-0.857-2.028
		C73.81,49.421,73.474,49.814,72.771,49.814z"/>
	<path fill="#FFFFFF" d="M61.25,46.089c0-0.582-0.309-0.965-0.764-0.965c-0.252,0-0.708,0.034-0.935,0.354
		c-0.087,1.538-0.103,2.945-0.103,3.935c0,0.227,0.006,0.451,0.016,0.672c0.413-0.439,0.79-0.939,1.106-1.521
		C61.228,47.353,61.25,46.726,61.25,46.089z"/>
	<path fill="#FFFFFF" d="M90.82,49.45c-1.784,0-2.13-1.602-2.13-3.349c0-1.128,0.2-2.312,0.546-3.149
		c2.421-5.788,6.225-11.412,6.225-19.33c0-2.566-0.619-5.351-3.131-5.351c-0.783,0-1.529,0.255-2.257,0.728
		c-3.253,2.138-5.194,6.787-6.072,11.929c1.457,4.258,2.258,8.82,2.258,13.572c0,2.274-0.187,4.503-0.536,6.679
		c0.752,1.12,1.889,2.02,3.421,2.02c2.122,0,4.503-2.623,6.544-5.092c-0.215-0.901-0.357-1.829-0.435-2.71
		C93.816,47.196,91.965,49.45,90.82,49.45z M87.889,39.312c0-3.185,0.164-16.818,3.622-16.818c0.637,0,0.673,0.874,0.673,1.747
		c0,6.116-2.348,11.558-4.296,15.999V39.312z"/>
	<path fill="#FFFFFF" d="M84.002,30.928c-0.326,1.906-0.509,3.878-0.554,5.817c-5.133,0.473-9.283,4.823-9.283,10.466
		c0,0.738,0.082,1.455,0.244,2.126c0.068-0.009,0.124-0.032,0.2-0.032c0.491,0,0.965,0.255,0.965,0.892
		c0,0.413-0.118,0.805-0.308,1.168c0.76,1.126,1.922,1.853,3.522,1.853c2.767,0,4.823-1.802,6.298-3.24
		c0.167,0.409,0.381,0.818,0.638,1.202c0.348-2.176,0.536-4.405,0.536-6.679C86.26,39.749,85.459,35.187,84.002,30.928z
		 M79.99,49.741c-1.074,0-1.456-0.892-1.456-2.13c0-3.677,2.403-6.898,4.987-8.154c0,0,0.2,7.281,0.273,7.772
		C82.993,48.231,81.683,49.741,79.99,49.741z"/>
	<path fill="#FFFFFF" d="M74.609,49.305c-0.076,0-0.132,0.023-0.2,0.032c0.181,0.753,0.464,1.444,0.857,2.028
		c0.189-0.364,0.308-0.755,0.308-1.168C75.574,49.559,75.101,49.305,74.609,49.305z"/>
	<path fill="#FFFFFF" d="M101.876,49.323c-1.784,0-2.002-2.803-2.002-4.496c0-0.673,0.055-1.547,0.328-1.893
		c4.004-5.024,9.119-11.831,9.119-20.549c0-2.111-0.528-4.114-2.621-4.114c-2.548,0-4.241,1.511-5.515,3.131
		c-3.913,4.951-6.006,13.651-6.006,22.37c0,0.506,0.027,1.057,0.077,1.626c0.71-0.888,1.322-1.666,1.695-2.003
		c0.564-0.437,0.878-2.227,1.224-2.227c0.637,0,0.928,1.201,0.928,2.166c0,0.51-0.091,0.965-0.291,1.147
		c-0.841,0.781-1.923,2.177-3.121,3.626c0.642,2.69,1.937,5.111,4.166,5.111c1.769,0,3.784-1.38,5.469-3.129
		c-0.203-0.609-0.312-1.278-0.312-1.985c0-0.505,0.015-0.989,0.042-1.46C104.019,48.008,102.878,49.323,101.876,49.323z
		 M99.692,39.749c0-4.277,1.529-16.4,5.642-16.4c0.382,0,0.564,0.382,0.564,0.874c0,0.746-0.218,1.547-0.455,2.421
		C104.151,31.413,101.912,35.836,99.692,39.749z"/>
	<path fill="#FFFFFF" d="M98.81,44.481c0.2-0.182,0.291-0.637,0.291-1.147c0-0.965-0.291-2.166-0.928-2.166
		c-0.346,0-0.66,1.79-1.224,2.227c-0.373,0.337-0.984,1.115-1.695,2.003c0.078,0.881,0.22,1.809,0.435,2.71
		C96.888,46.658,97.969,45.262,98.81,44.481z"/>
	<path fill="#FFFFFF" d="M126.149,47.622c-0.02,0.272-0.037,0.545-0.062,0.816c0.002-0.001,0.003-0.002,0.005-0.004
		C126.117,48.165,126.129,47.892,126.149,47.622z"/>
	<path fill="#FFFFFF" d="M126.277,44.501c0,0.684-0.019,1.363-0.052,2.039C126.258,45.864,126.277,45.185,126.277,44.501z"/>
	<path fill="#FFFFFF" d="M126.267,43.705c-0.003,0.003-0.007,0.006-0.01,0.009c0.005,0.263,0.02,0.523,0.02,0.786
		C126.277,44.235,126.271,43.97,126.267,43.705z"/>
	<path fill="#FFFFFF" d="M126.225,46.539c0.032-0.676,0.052-1.355,0.052-2.039c0-0.264-0.015-0.524-0.02-0.786
		c-2.266,2.063-6.871,6.129-8.43,7.429c0.309-2.057,0.637-3.622,0.928-5.424c0.419-2.566,1.456-5.57,1.456-8.027
		c0-0.728-0.601-1.019-1.329-1.019c-1.693,0-3.058,1.147-3.385,2.566l-1.274,5.351c-0.4,1.693-1.165,5.133-3.131,5.133
		c-1.165,0-1.42-1.238-1.42-2.403c0-2.366,0.546-4.732,1.092-6.698c0.309-1.074,0.855-1.838,0.855-2.912
		c0-0.874-0.692-1.31-1.547-1.31c-1.22,0-2.275,0.783-2.73,1.675c-1.218,2.484-2.096,5.097-2.288,8.569
		c0.752-0.991,1.447-2.008,1.991-2.567c0.328-0.218,0.655-1.321,0.91-1.321c0.455,0,0.783,0.928,0.783,1.82
		c0,0.164-0.018,0.309-0.036,0.455c-0.519,1.468-1.804,3.424-3.377,5.058c0.621,1.87,2.143,3.166,4.257,3.166
		c1.675,0,3.094-1.037,4.114-1.948l-0.491,2.239c-2.585,2.111-5.133,3.986-7.226,6.553c-1.311,1.602-3.294,3.822-3.294,6.389
		s1.602,3.622,4.077,3.622c7.39,0,9.356-8.518,10.484-14.925c1.425-1.013,5.931-4.514,8.843-6.746
		c0.025-0.271,0.042-0.544,0.062-0.816C126.176,47.262,126.207,46.902,126.225,46.539z M106.978,66.614
		c-0.491,0-0.728-0.218-0.728-0.673c0-0.273,0.091-0.637,0.273-1.056c1.183-2.767,3.659-5.406,6.061-7.008
		C112.002,60.808,110.546,66.614,106.978,66.614z"/>
	<path fill="#FFFFFF" d="M105.324,50.089c1.573-1.634,2.859-3.59,3.377-5.058c0.018-0.146,0.036-0.291,0.036-0.455
		c0-0.892-0.328-1.82-0.783-1.82c-0.255,0-0.582,1.102-0.91,1.321c-0.544,0.559-1.239,1.576-1.991,2.567
		c-0.026,0.471-0.042,0.956-0.042,1.46C105.013,48.81,105.122,49.479,105.324,50.089z"/>
</g>
</svg>
