<?xml version="1.0" encoding="utf-8"?>
<!-- Generator: Adobe Illustrator 17.1.0, SVG Export Plug-In . SVG Version: 6.00 Build 0)  -->
<!DOCTYPE svg PUBLIC "-//W3C//DTD SVG 1.1//EN" "http://www.w3.org/Graphics/SVG/1.1/DTD/svg11.dtd">
<svg version="1.1" id="Layer_1" xmlns="http://www.w3.org/2000/svg" xmlns:xlink="http://www.w3.org/1999/xlink" x="0px" y="0px"
	 viewBox="0 0 300 300" enable-background="new 0 0 300 300" xml:space="preserve">
<g>
	<polygon fill="#51B748" points="254.716,167.019 176.924,121.581 208.498,67.525 286.29,112.964 254.631,130.721 	"/>
	<polygon fill="#2C92D0" points="45.284,167.019 123.076,121.581 91.502,67.525 13.71,112.964 45.369,130.721 	"/>
	<polygon fill="#51B748" points="205.176,65.145 188.352,55.318 149.941,121.079 161.223,140.394 	"/>
	<polygon fill="#51B748" points="83.483,234.855 100.308,244.682 149.941,159.709 138.659,140.394 	"/>
	<polygon fill="#2C92D0" points="216.398,234.855 161.223,140.394 149.941,159.709 199.574,244.682 	"/>
	<polygon fill="#2C92D0" points="111.53,55.318 94.705,65.145 138.659,140.394 149.941,121.079 	"/>
	<polygon fill="#19693D" points="149.941,121.079 138.659,140.394 149.941,159.709 161.223,140.394 	"/>
</g>
</svg>
