<?xml version="1.0" encoding="utf-8"?>
<!-- Generator: Adobe Illustrator 17.1.0, SVG Export Plug-In . SVG Version: 6.00 Build 0)  -->
<!DOCTYPE svg PUBLIC "-//W3C//DTD SVG 1.1//EN" "http://www.w3.org/Graphics/SVG/1.1/DTD/svg11.dtd">
<svg version="1.1" id="Layer_1" xmlns="http://www.w3.org/2000/svg" xmlns:xlink="http://www.w3.org/1999/xlink" x="0px" y="0px"
	 viewBox="0 0 300 300" enable-background="new 0 0 300 300" xml:space="preserve">
<g>
	<rect x="216.91" y="151.517" fill="none" width="9.161" height="28.765"/>
	<polygon fill="none" points="226.071,134.78 226.071,73.602 46.523,73.602 46.523,180.283 206.425,180.283 206.425,134.78 	"/>
	<path fill="none" d="M216.91,198.566v28.516c8.411,0.068,27.4,0.005,44.367-0.089v-75.486l-16.922,0.004v47.055H216.91z"/>
	<path fill="none" d="M239.926,232.395c-2.084,0-3.767,1.693-3.767,3.767c0,2.084,1.687,3.772,3.767,3.772s3.767-1.687,3.767-3.772
		C243.693,234.083,242,232.395,239.926,232.395z"/>
	<polygon fill="#51B748" points="46.523,180.283 46.523,73.602 226.071,73.602 226.071,134.78 244.355,134.78 244.355,55.318 
		28.239,55.318 28.239,198.566 206.425,198.566 206.425,180.283 	"/>
	<polygon fill="#51B748" points="226.071,180.283 216.91,180.283 216.91,198.566 244.355,198.566 244.355,151.511 226.071,151.516 	
		"/>
	<rect x="96.6" y="202.785" fill="#51B748" width="79.394" height="9.946"/>
	<rect x="80.184" y="216.878" fill="#51B748" width="112.225" height="9.946"/>
	<path fill="#2C92D0" d="M244.355,134.78v16.731l16.922-0.004v75.486c-16.967,0.094-35.956,0.157-44.367,0.089v-28.516h-10.485
		v46.116h65.336V134.78H244.355z M239.926,239.933c-2.079,0-3.767-1.687-3.767-3.772c0-2.074,1.682-3.767,3.767-3.767
		c2.074,0,3.767,1.687,3.767,3.767C243.693,238.246,242.006,239.933,239.926,239.933z"/>
	<polygon fill="#2C92D0" points="226.071,151.516 226.071,134.78 206.425,134.78 206.425,180.283 216.91,180.283 216.91,151.518 	
		"/>
	<rect x="226.071" y="134.782" fill="#19693D" width="18.284" height="16.731"/>
	<rect x="206.425" y="180.283" fill="#19693D" width="10.485" height="18.284"/>
</g>
</svg>
