<?xml version="1.0" encoding="utf-8"?>
<!-- Generator: Adobe Illustrator 17.1.0, SVG Export Plug-In . SVG Version: 6.00 Build 0)  -->
<!DOCTYPE svg PUBLIC "-//W3C//DTD SVG 1.1//EN" "http://www.w3.org/Graphics/SVG/1.1/DTD/svg11.dtd">
<svg version="1.1" id="Layer_1" xmlns="http://www.w3.org/2000/svg" xmlns:xlink="http://www.w3.org/1999/xlink" x="0px" y="0px"
	 viewBox="0 0 300 300" enable-background="new 0 0 300 300" xml:space="preserve">
<g>
	<path fill="#2C92D0" d="M103,77c40.252,0,73,32.748,73,73s-32.748,73-73,73s-73-32.748-73-73S62.748,77,103,77 M103,57
		c-51.362,0-93,41.638-93,93s41.638,93,93,93s93-41.638,93-93S154.362,57,103,57L103,57z"/>
	<g>
		<path fill="#51B748" d="M197,77c40.252,0,73,32.748,73,73s-32.748,73-73,73s-73-32.748-73-73S156.748,77,197,77 M197,57
			c-51.362,0-93,41.638-93,93s41.638,93,93,93s93-41.638,93-93S248.362,57,197,57L197,57z"/>
	</g>
	<g>
		<path fill="#19693D" d="M150,94.203c5.3-4.472,11.243-8.199,17.669-11.03c-5.317-5.147-11.247-9.664-17.669-13.433
			c-6.422,3.769-12.352,8.286-17.669,13.433C138.757,86.004,144.7,89.732,150,94.203z"/>
		<path fill="#19693D" d="M150,205.797c-5.3,4.472-11.243,8.199-17.669,11.03c5.317,5.147,11.247,9.664,17.669,13.433
			c6.422-3.769,12.352-8.286,17.669-13.433C161.243,213.996,155.3,210.268,150,205.797z"/>
	</g>
</g>
</svg>
