<?xml version="1.0" encoding="utf-8"?>
<!-- Generator: Adobe Illustrator 17.1.0, SVG Export Plug-In . SVG Version: 6.00 Build 0)  -->
<!DOCTYPE svg PUBLIC "-//W3C//DTD SVG 1.1//EN" "http://www.w3.org/Graphics/SVG/1.1/DTD/svg11.dtd">
<svg version="1.1" id="Layer_1" xmlns="http://www.w3.org/2000/svg" xmlns:xlink="http://www.w3.org/1999/xlink" x="0px" y="0px"
	 viewBox="-2.5 -2.5 182 125.1" enable-background="new -2.5 -2.5 182 125.1" xml:space="preserve">
<g>
	<path fill="#51B748" d="M116.9-2.5c-9.9,0-19.7,2.4-28.4,6.8c-8.8-4.5-18.6-6.8-28.4-6.8C25.6-2.5-2.5,25.6-2.5,60.1
		c0,34.5,28.1,62.6,62.6,62.6c9.9,0,19.7-2.4,28.4-6.8c8.7,4.5,18.5,6.8,28.4,6.8c34.5,0,62.6-28.1,62.6-62.6
		C179.5,25.6,151.4-2.5,116.9-2.5z"/>
	<path fill="#FFFFFF" d="M116.9-0.5c-9.9,0-19.7,2.4-28.4,7.1l0,0l0,0C79.8,1.9,70-0.5,60.1-0.5C26.7-0.5-0.5,26.7-0.5,60.1
		c0,33.4,27.2,60.6,60.6,60.6c9.9,0,19.7-2.4,28.4-7.1l0,0l0,0c8.7,4.6,18.5,7.1,28.4,7.1c33.4,0,60.6-27.2,60.6-60.6
		C177.5,26.7,150.3-0.5,116.9-0.5z M113.5,118.5c-0.4,0-0.8-0.1-1.2-0.1c-0.7-0.1-1.5-0.1-2.2-0.2c-0.5-0.1-1-0.1-1.4-0.2
		c-0.7-0.1-1.3-0.2-2-0.3c-0.5-0.1-1-0.2-1.5-0.3c-0.6-0.1-1.2-0.2-1.8-0.4c-0.5-0.1-1-0.3-1.6-0.4c-0.6-0.2-1.2-0.3-1.8-0.5
		c-0.5-0.2-1-0.3-1.5-0.5c-0.6-0.2-1.2-0.4-1.7-0.6c-0.5-0.2-1-0.4-1.5-0.6c-0.6-0.2-1.1-0.4-1.7-0.7c-0.5-0.2-1-0.4-1.4-0.7
		c-0.5-0.2-1-0.5-1.5-0.7c0.1-0.1,0.3-0.2,0.4-0.2c0,0,0.1,0,0.1-0.1l0,0c0,0,0,0,0,0c0.4-0.2,0.7-0.4,1.1-0.6l0.3-0.2l0.4-0.3l0,0
		l0,0c0.3-0.2,0.7-0.4,1-0.7l0.1-0.1c0.2-0.1,0.4-0.3,0.6-0.4c0.3-0.2,0.7-0.5,1-0.7c0.2-0.2,0.5-0.3,0.7-0.5
		c0.3-0.2,0.6-0.5,0.9-0.7l0,0c0,0,0,0,0,0l0.5-0.4l0.2-0.1l0,0l0,0c0.3-0.2,0.6-0.5,0.9-0.7c0.2-0.2,0.4-0.4,0.7-0.5
		c0.3-0.3,0.6-0.5,0.9-0.8l0,0c0,0,0,0,0,0l0.6-0.6c0.3-0.3,0.6-0.5,0.8-0.8l0,0c0,0,0,0,0,0l0.1-0.1c0.2-0.2,0.4-0.3,0.5-0.5
		c0.3-0.3,0.5-0.5,0.8-0.8c0,0,0,0,0,0c0.2-0.2,0.4-0.4,0.6-0.6l0,0c0.3-0.3,0.5-0.5,0.8-0.8l0,0c0,0,0,0,0,0l0.6-0.6
		c0.2-0.3,0.5-0.6,0.7-0.8l0.6-0.7l0,0l0,0c0.2-0.3,0.5-0.6,0.7-0.9l0.1-0.1c0.2-0.2,0.3-0.4,0.5-0.6c0.2-0.3,0.5-0.6,0.7-0.9
		l0.1-0.2c0,0,0.1-0.1,0.1-0.1c0.1-0.1,0.2-0.3,0.3-0.4c0.2-0.3,0.4-0.6,0.6-0.9l0.1-0.1c0.1-0.2,0.3-0.4,0.4-0.6l0,0
		c0.2-0.3,0.4-0.5,0.5-0.8l0.1-0.1l0.5-0.7l0,0l0,0c0.2-0.2,0.3-0.5,0.5-0.8c0-0.1,0.1-0.1,0.1-0.2l0.1-0.1c0.1-0.1,0.1-0.2,0.2-0.3
		c0.1-0.1,0.2-0.3,0.2-0.4c0.2-0.3,0.3-0.6,0.5-0.8l0.1-0.1l0,0l0,0l0-0.1l0.1-0.1c0.1-0.1,0.1-0.2,0.2-0.3c0.1-0.1,0.1-0.2,0.2-0.3
		c0.1-0.3,0.3-0.5,0.4-0.8l0.1-0.2l0,0l0,0l0,0l0.4-0.8h0l0,0c0.1-0.3,0.3-0.5,0.4-0.8l0.1-0.2l0,0l0.1-0.2c0-0.1,0.1-0.2,0.1-0.3
		c0-0.1,0.1-0.2,0.1-0.3l0,0c0.1-0.3,0.3-0.6,0.4-0.8l0.2-0.4c0.1-0.2,0.2-0.4,0.2-0.5l0,0c0.1-0.3,0.2-0.6,0.4-0.9l0.1-0.2l0.1-0.3
		l0.2-0.4c0.1-0.3,0.2-0.6,0.3-0.9l0-0.1l0.1-0.4c0.1-0.2,0.1-0.4,0.2-0.5l0,0c0.1-0.3,0.2-0.6,0.3-0.8l0.2-0.5
		c0.1-0.2,0.1-0.4,0.2-0.6l0,0c0,0,0,0,0,0c0.1-0.3,0.2-0.6,0.3-0.9l0.2-0.5c0-0.1,0.1-0.2,0.1-0.3c0-0.1,0.1-0.2,0.1-0.3l0,0
		c0,0,0,0,0,0c0.1-0.3,0.2-0.6,0.2-1l0.1-0.2h0l0.2-0.8c0.1-0.3,0.1-0.6,0.2-0.9l0.1-0.5c0-0.2,0.1-0.4,0.1-0.5
		c0.1-0.3,0.1-0.6,0.2-0.9l0-0.2l0.2-0.8c0.1-0.3,0.1-0.7,0.2-1l0.1-0.5c0-0.2,0-0.3,0.1-0.5c0-0.4,0.1-0.7,0.1-1.1l0.1-0.6l0-0.4h0
		l0,0c0-0.4,0.1-0.8,0.1-1.3l0.1-0.7l0-0.1h0l0,0c0-0.5,0.1-1,0.1-1.5l0-0.5c0-0.5,0-1.1,0-1.6c0-0.2,0-0.3,0-0.5c0,0,0,0,0,0v0
		c0,0,0,0,0,0l0-0.1c0-0.6,0-1.3,0-1.9c0-0.2,0-0.4,0-0.5l0-0.5c0-0.1,0-0.2,0-0.3c0-0.2,0-0.4,0-0.7h0c0-0.2,0-0.4-0.1-0.6l0-0.4
		l0-0.4c0-0.2,0-0.5-0.1-0.7c0-0.2-0.1-0.5-0.1-0.7l0,0l-0.1-0.6c0-0.1,0-0.2,0-0.3c0-0.1,0-0.2,0-0.3h0c0-0.3-0.1-0.5-0.1-0.8
		l0-0.3l0-0.3c0-0.2-0.1-0.4-0.1-0.6c0-0.3-0.1-0.5-0.1-0.8l-0.1-0.6c0,0,0,0,0-0.1c0-0.2-0.1-0.3-0.1-0.5l0,0c0,0,0,0,0,0
		c-0.1-0.3-0.1-0.6-0.2-0.8l-0.1-0.6c0-0.1-0.1-0.3-0.1-0.4c0-0.1,0-0.1,0-0.2h0c-0.1-0.3-0.1-0.5-0.2-0.8l-0.3-1.1
		c-0.1-0.3-0.2-0.6-0.3-0.9l-0.1-0.5c-0.1-0.2-0.1-0.4-0.2-0.5c0,0,0,0,0,0c0,0,0,0,0,0c0,0,0,0,0,0c0,0,0,0,0,0c0,0,0,0,0,0
		c-0.1-0.3-0.2-0.6-0.3-0.8l0-0.1l-0.1-0.2l0-0.1c-0.1-0.2-0.1-0.4-0.2-0.6c-0.1-0.3-0.2-0.6-0.3-0.9l-0.1-0.3l0-0.1
		c-0.1-0.2-0.1-0.4-0.2-0.6c-0.1-0.3-0.2-0.6-0.4-0.9l-0.1-0.1l-0.1-0.1l-0.3-0.7l0,0l0,0c-0.1-0.3-0.2-0.6-0.4-0.9c0,0,0,0,0,0
		l0-0.1c0,0,0-0.1-0.1-0.1l-0.3-0.7c0,0,0,0,0,0c0,0,0,0,0,0c0,0,0,0,0,0c0,0,0,0,0,0c0,0,0,0,0,0c-0.1-0.2-0.1-0.3-0.2-0.5
		c-0.1-0.1-0.1-0.3-0.2-0.4l0,0c0,0,0,0,0,0l-0.2-0.4l-0.2-0.5l0,0l0,0c-0.1-0.3-0.3-0.6-0.5-0.9l-0.1-0.1l0,0l0,0l0,0h0l-0.4-0.7
		l0,0l0,0c-0.2-0.3-0.3-0.6-0.5-0.9l-0.1-0.1l0,0l-0.4-0.7c0,0,0,0,0,0l0,0c-0.1-0.1-0.1-0.2-0.2-0.3c-0.1-0.2-0.2-0.4-0.3-0.6l0,0
		c0,0,0,0,0-0.1l-0.4-0.7c-0.2-0.3-0.4-0.6-0.6-0.9l-0.1-0.1h0l0,0l0,0l-0.5-0.7l0,0c-0.2-0.3-0.4-0.6-0.7-1l-0.5-0.7
		c-0.2-0.3-0.5-0.6-0.7-0.9l-0.5-0.6c-0.2-0.3-0.5-0.6-0.7-0.9l-0.5-0.6l0,0c-0.3-0.3-0.5-0.6-0.8-0.9c-0.1-0.1-0.2-0.2-0.3-0.3
		c-0.1-0.1-0.1-0.2-0.2-0.2c0,0,0,0,0,0c0,0,0,0,0,0l0,0c0,0,0,0,0,0c-0.3-0.3-0.5-0.6-0.8-0.9l-0.6-0.6c-0.3-0.3-0.5-0.6-0.8-0.8
		l0,0l-0.1-0.1c-0.1-0.1-0.2-0.2-0.3-0.3c-0.1-0.1-0.2-0.2-0.3-0.3l0,0c-0.3-0.3-0.6-0.5-0.8-0.8l-0.6-0.6c-0.3-0.3-0.6-0.5-0.9-0.8
		c-0.2-0.2-0.4-0.4-0.6-0.6c-0.3-0.3-0.6-0.5-0.9-0.7l-0.7-0.5c-0.3-0.2-0.6-0.4-0.9-0.7c0,0,0,0,0,0l0,0c0,0,0,0,0,0c0,0,0,0,0,0
		l0,0c-0.2-0.2-0.4-0.3-0.7-0.5l0,0c0,0,0,0,0,0c-0.3-0.2-0.6-0.5-0.9-0.7l0,0c-0.2-0.2-0.5-0.3-0.7-0.5c-0.3-0.2-0.6-0.4-1-0.6l0,0
		c0,0,0,0,0,0c-0.2-0.2-0.5-0.3-0.7-0.5c-0.3-0.2-0.6-0.4-1-0.6c-0.3-0.2-0.5-0.3-0.8-0.5l0,0c0,0,0,0,0,0C91,8,90.8,7.9,90.6,7.8
		c0.4-0.2,0.9-0.4,1.3-0.6c0.5-0.2,1-0.5,1.5-0.7c0.6-0.2,1.1-0.5,1.7-0.7c0.5-0.2,1-0.4,1.5-0.6c0.6-0.2,1.2-0.4,1.8-0.6
		c0.5-0.2,1-0.3,1.5-0.5c0.6-0.2,1.2-0.3,1.8-0.5c0.5-0.1,1-0.3,1.5-0.4c0.6-0.2,1.3-0.3,1.9-0.4c0.5-0.1,1-0.2,1.5-0.3
		c0.7-0.1,1.4-0.2,2-0.3c0.5-0.1,0.9-0.1,1.4-0.2c0.8-0.1,1.5-0.1,2.3-0.2c0.4,0,0.8-0.1,1.2-0.1c1.2-0.1,2.3-0.1,3.5-0.1
		c32.3,0,58.6,26.3,58.6,58.6c0,32.3-26.3,58.6-58.6,58.6C115.8,118.6,114.6,118.6,113.5,118.5z M83.6,113.7
		c-0.6,0.3-1.2,0.5-1.7,0.7c-0.5,0.2-1,0.4-1.5,0.6c-0.6,0.2-1.2,0.4-1.8,0.6c-0.5,0.2-1,0.3-1.5,0.5c-0.6,0.2-1.2,0.3-1.9,0.5
		c-0.5,0.1-1,0.3-1.5,0.4c-0.6,0.2-1.3,0.3-2,0.4c-0.5,0.1-0.9,0.2-1.4,0.3c-0.7,0.1-1.4,0.2-2.1,0.3c-0.4,0.1-0.9,0.1-1.3,0.2
		c-0.8,0.1-1.5,0.1-2.3,0.2c-0.4,0-0.8,0.1-1.1,0.1c-1.2,0.1-2.3,0.1-3.5,0.1c-32.3,0-58.6-26.3-58.6-58.6
		c0-32.3,26.3-58.6,58.6-58.6c1.2,0,2.3,0,3.5,0.1c0.4,0,0.8,0.1,1.1,0.1c0.8,0.1,1.5,0.1,2.3,0.2c0.5,0.1,0.9,0.1,1.4,0.2
		c0.7,0.1,1.4,0.2,2,0.3c0.5,0.1,1,0.2,1.5,0.3c0.6,0.1,1.3,0.3,1.9,0.4c0.5,0.1,1,0.3,1.5,0.4c0.6,0.2,1.2,0.3,1.8,0.5
		c0.5,0.2,1,0.3,1.5,0.5c0.6,0.2,1.2,0.4,1.8,0.6c0.5,0.2,1,0.4,1.5,0.6c0.6,0.2,1.2,0.5,1.7,0.7c0.5,0.2,1,0.5,1.5,0.7
		c0.4,0.2,0.9,0.4,1.3,0.6C86.2,7.9,86,8,85.8,8.1c0,0,0,0,0,0l0,0c0,0,0,0,0,0c0,0,0,0,0,0c-0.3,0.2-0.5,0.3-0.8,0.5
		c-0.3,0.2-0.6,0.4-1,0.6c-0.3,0.2-0.5,0.3-0.8,0.5c-0.3,0.2-0.6,0.4-0.9,0.6c-0.2,0.2-0.5,0.3-0.7,0.5c-0.3,0.2-0.6,0.4-0.9,0.7
		l0,0c0,0,0,0,0,0c0,0,0,0,0,0c0,0,0,0,0,0c-0.2,0.2-0.4,0.3-0.7,0.5l0,0l0,0c0,0,0,0,0,0c-0.3,0.2-0.6,0.5-0.9,0.7l0,0
		c-0.2,0.2-0.5,0.4-0.7,0.6l0,0c0,0,0,0,0,0c-0.3,0.2-0.6,0.5-0.9,0.7c0,0,0,0,0,0c-0.1,0.1-0.1,0.1-0.2,0.2
		c-0.1,0.1-0.2,0.2-0.4,0.3l-0.1,0.1l0,0l0,0l0,0c-0.3,0.2-0.6,0.5-0.8,0.7c-0.2,0.2-0.4,0.4-0.7,0.6l0,0c0,0,0,0,0,0
		c-0.3,0.3-0.5,0.5-0.8,0.8l0,0c0,0,0,0,0,0c-0.2,0.2-0.4,0.4-0.6,0.6c0,0,0,0,0,0l0,0c0,0,0,0,0,0c-0.3,0.3-0.5,0.5-0.8,0.8
		c0,0,0,0,0,0c0,0,0,0,0,0c-0.2,0.2-0.4,0.4-0.6,0.6c0,0,0,0,0,0c-0.1,0.1-0.2,0.3-0.4,0.4c-0.1,0.1-0.2,0.3-0.4,0.4
		c-0.2,0.2-0.4,0.4-0.6,0.6c0,0,0,0,0,0l0,0c0,0,0,0,0,0c-0.2,0.3-0.5,0.5-0.7,0.8c-0.2,0.2-0.3,0.4-0.5,0.6L69.8,22
		c-0.2,0.3-0.4,0.5-0.6,0.8c-0.2,0.2-0.3,0.4-0.5,0.6l0,0.1l-0.1,0.1c-0.1,0.1-0.2,0.3-0.3,0.4c-0.1,0.1-0.2,0.3-0.3,0.4l0,0
		c-0.2,0.2-0.3,0.4-0.5,0.6l-0.2,0.3c-0.2,0.2-0.3,0.5-0.5,0.7c-0.1,0.2-0.3,0.4-0.4,0.6l-0.1,0.2l0,0l-0.1,0.1
		c-0.2,0.3-0.3,0.5-0.5,0.8c0,0,0,0,0,0c0,0,0,0,0,0c-0.1,0.2-0.3,0.4-0.4,0.6l-0.1,0.1l-0.1,0.2c-0.2,0.3-0.3,0.5-0.5,0.8
		c-0.1,0.2-0.3,0.4-0.4,0.7l-0.1,0.2c-0.2,0.3-0.3,0.6-0.5,0.8l0,0c0,0,0,0,0,0c-0.1,0.2-0.2,0.4-0.3,0.6l-0.1,0.1l0,0.1l0,0
		l-0.1,0.2c-0.1,0.2-0.3,0.5-0.4,0.8l0,0c-0.1,0.2-0.2,0.4-0.3,0.6l-0.1,0.3l0,0.1c-0.1,0.3-0.3,0.5-0.4,0.8l0,0c0,0,0,0,0,0
		c-0.1,0.2-0.2,0.4-0.3,0.6l-0.1,0.2l-0.1,0.1l0,0.1c-0.1,0.2-0.2,0.5-0.3,0.7c-0.1,0.2-0.2,0.4-0.3,0.6l-0.2,0.5
		c-0.1,0.2-0.2,0.5-0.3,0.7l0,0c-0.1,0.2-0.2,0.4-0.2,0.6l0,0L60,39.4c-0.1,0.3-0.2,0.5-0.3,0.8c-0.1,0.2-0.1,0.4-0.2,0.7l-0.2,0.5
		c-0.1,0.2-0.2,0.5-0.2,0.7c-0.1,0.2-0.1,0.4-0.2,0.7l-0.2,0.6c-0.1,0.2-0.1,0.5-0.2,0.7c-0.1,0.2-0.1,0.4-0.2,0.7l-0.2,0.6
		c-0.1,0.2-0.1,0.5-0.2,0.7c-0.1,0.2-0.1,0.5-0.2,0.7l0,0l-0.1,0.5c-0.1,0.2-0.1,0.5-0.2,0.7c0,0.2-0.1,0.5-0.1,0.7l0,0.1l-0.1,0.5
		c0,0.2-0.1,0.5-0.1,0.7c0,0.2-0.1,0.5-0.1,0.7l0,0.1L57,51.3c0,0.1,0,0.2,0,0.3c0,0.1,0,0.2,0,0.3c0,0.1,0,0.1,0,0.2
		c0,0.2-0.1,0.4-0.1,0.6l-0.1,0.6l0,0c0,0.2-0.1,0.4-0.1,0.6c0,0.3-0.1,0.6-0.1,0.8l-0.1,0.6c0,0.2,0,0.4,0,0.6c0,0.3,0,0.7-0.1,1
		l0,0.6c0,0.2,0,0.3,0,0.5l0,0c0,0,0,0,0,0c0,0.7,0,1.3,0,2.1v0c0,0.6,0,1.3,0,1.9c0,0,0,0.1,0,0.1c0,0,0,0,0,0l0,0.8
		c0,0.3,0,0.6,0,0.8c0,0.1,0,0.3,0,0.4h0c0,0.2,0,0.3,0,0.5l0,0.5c0,0.3,0.1,0.7,0.1,1c0,0.2,0,0.3,0.1,0.5l0,0.3l0,0.3
		c0,0.3,0.1,0.6,0.1,0.9c0,0.2,0.1,0.4,0.1,0.6l0.1,0.6c0,0.3,0.1,0.5,0.1,0.8c0,0.2,0.1,0.4,0.1,0.6l0.1,0.6c0,0.3,0.1,0.5,0.1,0.8
		c0,0.2,0.1,0.4,0.1,0.6l0.1,0.5l0,0.1c0.1,0.3,0.1,0.5,0.2,0.8c0.1,0.2,0.1,0.5,0.2,0.7l0.1,0.5c0.1,0.2,0.1,0.5,0.2,0.7l0,0
		c0,0,0,0,0,0c0.1,0.2,0.1,0.5,0.2,0.7l0.2,0.6c0.1,0.2,0.1,0.5,0.2,0.7c0.1,0.2,0.1,0.5,0.2,0.7l0.1,0.3l0,0.1l0,0.1
		c0.1,0.2,0.2,0.5,0.2,0.7l0,0c0.1,0.3,0.2,0.5,0.3,0.8l0,0.1l0.1,0.3c0,0.1,0.1,0.2,0.1,0.3c0,0.1,0.1,0.2,0.1,0.3l0,0c0,0,0,0,0,0
		c0.1,0.3,0.2,0.5,0.3,0.8l0,0l0.2,0.4c0.1,0.2,0.2,0.4,0.3,0.7l0,0c0,0,0,0,0,0c0.1,0.2,0.2,0.5,0.3,0.7l0,0.1l0.2,0.4
		c0.1,0.2,0.2,0.4,0.3,0.6c0,0,0,0,0,0l0,0c0.1,0.3,0.3,0.5,0.4,0.8l0.1,0.2l0.1,0.2c0.1,0.1,0.1,0.2,0.2,0.3
		c0.1,0.1,0.1,0.2,0.2,0.3c0,0,0,0,0,0c0,0,0,0,0,0c0,0,0,0.1,0,0.1c0.1,0.2,0.2,0.4,0.3,0.6l0.2,0.3c0,0,0,0.1,0,0.1
		c0.1,0.2,0.2,0.4,0.3,0.6l0,0c0,0,0,0,0,0c0.1,0.2,0.3,0.5,0.4,0.7l0,0l0.2,0.3c0.1,0.2,0.3,0.4,0.4,0.7c0.1,0.2,0.3,0.5,0.4,0.7
		l0.2,0.3c0.1,0.2,0.3,0.5,0.4,0.7c0.2,0.3,0.3,0.5,0.5,0.8l0.1,0.1l0,0l0.1,0.2c0.1,0.1,0.1,0.2,0.2,0.2c0.1,0.1,0.2,0.2,0.2,0.4
		l0,0c0,0,0,0,0,0c0.2,0.2,0.3,0.5,0.5,0.7l0.2,0.3c0.2,0.2,0.3,0.4,0.5,0.7c0.2,0.2,0.4,0.5,0.5,0.7l0.1,0.2l0,0
		c0.2,0.2,0.4,0.5,0.5,0.7l0,0c0,0,0,0,0,0c0.2,0.3,0.4,0.5,0.7,0.9c0,0.1,0.1,0.1,0.1,0.2c0.1,0.2,0.3,0.4,0.5,0.6
		c0.2,0.2,0.4,0.5,0.7,0.8l0.1,0.1c0.2,0.2,0.4,0.4,0.6,0.6c0,0,0,0,0,0c0,0,0,0,0,0c0,0,0,0,0,0c0.2,0.2,0.4,0.4,0.6,0.7
		c0,0,0,0,0,0.1l0,0c0,0,0,0,0,0l0,0c0.2,0.2,0.4,0.4,0.6,0.7l0,0c0,0,0,0,0,0c0.2,0.2,0.5,0.5,0.7,0.7c0,0,0,0,0,0l0,0l0,0
		c0.2,0.2,0.5,0.5,0.7,0.7c0,0,0,0,0,0c0,0,0,0,0,0l0,0c0.2,0.2,0.5,0.5,0.7,0.7l0,0c0.2,0.2,0.5,0.5,0.7,0.7l0,0c0,0,0,0,0,0
		c0.3,0.2,0.5,0.5,0.8,0.7c0.3,0.2,0.5,0.4,0.8,0.7c0.3,0.2,0.5,0.4,0.8,0.6l0,0c0.3,0.2,0.5,0.4,0.8,0.6l0,0c0,0,0,0,0,0
		c0.3,0.2,0.5,0.4,0.8,0.6c0.3,0.2,0.5,0.4,0.8,0.6c0.3,0.2,0.5,0.4,0.8,0.6c0.3,0.2,0.6,0.4,0.8,0.6c0.3,0.2,0.6,0.4,0.8,0.6l0,0
		c0.3,0.2,0.6,0.4,0.9,0.6c0.3,0.2,0.6,0.4,0.9,0.5l0,0c0,0,0,0,0,0c0.3,0.2,0.6,0.4,0.9,0.5c0,0,0,0,0,0l0,0
		c0.2,0.1,0.4,0.2,0.6,0.3c-0.5,0.2-0.9,0.4-1.4,0.7C84.5,113.3,84.1,113.5,83.6,113.7z M93.3,11.8L93.3,11.8
		c0.2,0.1,0.3,0.2,0.5,0.4l0.2,0.2l0,0l0.2,0.1l0.1,0.1c0.2,0.1,0.4,0.3,0.6,0.4c0.2,0.1,0.3,0.3,0.5,0.4l0.1,0.1l0.1,0.1l0.1,0.1
		l0.1,0.1c0.2,0.2,0.4,0.3,0.6,0.5c0.2,0.1,0.3,0.3,0.5,0.4l0.2,0.2l0.2,0.2c0.2,0.2,0.4,0.3,0.6,0.5c0.1,0.1,0.3,0.3,0.4,0.4
		l0.2,0.2l0,0l0.2,0.2c0.2,0.2,0.4,0.3,0.6,0.5c0.2,0.1,0.3,0.3,0.4,0.4l0.2,0.2l0,0l0,0l0,0l0,0l0.2,0.2c0.2,0.2,0.4,0.3,0.5,0.5
		c0,0,0,0,0.1,0.1c0.1,0.1,0.3,0.3,0.4,0.4l0.2,0.2l0,0l0.2,0.2c0.2,0.2,0.4,0.4,0.5,0.6l0,0c0.1,0.1,0.3,0.3,0.4,0.4l0.2,0.2l0,0
		l0,0l0,0l0.2,0.2c0.2,0.2,0.4,0.4,0.5,0.6c0.1,0.1,0.3,0.3,0.4,0.4l0.1,0.1l0.1,0.1l0.2,0.2c0.2,0.2,0.3,0.4,0.5,0.6
		c0.1,0.2,0.3,0.3,0.4,0.5l0.2,0.2l0.2,0.2c0.2,0.2,0.3,0.4,0.5,0.6l0,0c0.1,0.2,0.3,0.3,0.4,0.5l0.2,0.2l0,0l0,0l0,0l0.1,0.2l0,0
		c0.2,0.2,0.3,0.4,0.5,0.6c0.1,0.2,0.2,0.3,0.4,0.5l0.1,0.1l0.1,0.2l0.2,0.2c0.1,0.2,0.3,0.4,0.4,0.6l0,0c0,0,0,0,0,0
		c0.1,0.2,0.2,0.4,0.4,0.5l0.2,0.3l0,0l0.2,0.3c0.1,0.1,0.1,0.2,0.2,0.3c0.1,0.1,0.1,0.2,0.2,0.3c0.1,0.2,0.2,0.4,0.3,0.6l0.2,0.3
		l0,0l0.2,0.3c0.1,0.2,0.2,0.4,0.3,0.5c0.1,0.2,0.2,0.4,0.4,0.6l0,0.1l0.1,0.2l0,0l0,0l0,0l0.1,0.1l0.1,0.1c0.1,0.2,0.2,0.4,0.3,0.6
		c0.1,0.2,0.2,0.4,0.3,0.7l0.1,0.3l0,0l0,0l0,0L112,33c0.1,0.2,0.2,0.4,0.3,0.5l0,0c0,0,0,0,0,0c0.1,0.2,0.2,0.5,0.4,0.7l0.1,0.3
		l0,0l0.1,0.2l0,0c0.1,0.2,0.2,0.3,0.2,0.5c0.1,0.3,0.3,0.6,0.4,0.9l0.1,0.2l0,0l0.3,0.6l0.1,0.1c0.1,0.3,0.2,0.6,0.4,0.9l0.1,0.2
		l0,0l0.3,0.6l0,0c0.2,0.4,0.3,0.8,0.5,1.2l0,0l0,0c0,0,0,0,0,0l0.2,0.6c0.2,0.5,0.3,0.9,0.5,1.4l0.2,0.5c0.2,0.5,0.3,1,0.4,1.5
		l0.1,0.4l0,0l0,0c0.1,0.5,0.3,1.1,0.4,1.6l0.1,0.3c0.1,0.6,0.3,1.2,0.4,1.9l0,0c0,0,0,0,0,0c0.8,3.9,1.2,7.9,1.2,11.8
		s-0.4,8-1.2,11.9c-0.1,0.6-0.3,1.2-0.4,1.9l0,0c0,0,0,0,0,0l-0.1,0.2c0,0,0,0,0,0c0,0,0,0,0,0c-0.1,0.5-0.3,1.1-0.4,1.6l-0.1,0.4
		l0,0l0,0c-0.1,0.5-0.3,1-0.4,1.5l0,0c0,0,0,0,0,0l-0.2,0.5l0,0l0,0c-0.1,0.5-0.3,0.9-0.4,1.4l-0.2,0.6l0,0l0,0.1
		c-0.1,0.4-0.3,0.8-0.4,1.1l-0.3,0.6l0,0l0,0.1l0,0.1c-0.1,0.3-0.3,0.6-0.4,1l-0.3,0.7l0,0l0,0l-0.1,0.2c-0.1,0.3-0.2,0.5-0.4,0.8
		c-0.1,0.2-0.1,0.3-0.2,0.5l-0.1,0.3l0,0l-0.1,0.2l0,0.1c-0.1,0.2-0.2,0.5-0.4,0.7c-0.1,0.2-0.2,0.3-0.3,0.5l-0.2,0.3l-0.1,0.3
		c-0.1,0.2-0.2,0.5-0.4,0.7c-0.1,0.2-0.2,0.3-0.3,0.5L111,89l-0.1,0.1l0,0l-0.2,0.3c-0.1,0.2-0.2,0.4-0.3,0.6l0,0c0,0,0,0,0,0
		c-0.1,0.2-0.2,0.4-0.3,0.5l-0.1,0.2l0,0.1l0,0l-0.1,0.2c-0.1,0.2-0.2,0.4-0.4,0.6s-0.2,0.4-0.4,0.6l-0.2,0.2l0,0l0,0l0,0l-0.2,0.2
		c-0.1,0.2-0.2,0.4-0.4,0.6c-0.1,0.2-0.3,0.4-0.4,0.6l-0.1,0.2l0,0l0,0l0,0l-0.1,0.1l-0.1,0.2c-0.1,0.2-0.2,0.4-0.4,0.5
		c-0.1,0.2-0.3,0.4-0.4,0.6l-0.2,0.3l0,0l-0.1,0.1l-0.1,0.1c-0.1,0.2-0.2,0.3-0.4,0.5c-0.2,0.2-0.3,0.4-0.5,0.6l-0.2,0.2l-0.2,0.2
		c-0.1,0.2-0.3,0.3-0.4,0.5c-0.2,0.2-0.3,0.4-0.5,0.6l-0.1,0.1l-0.1,0.1l0,0l-0.2,0.2l0,0c-0.1,0.1-0.2,0.3-0.4,0.4
		c-0.2,0.2-0.3,0.4-0.5,0.6l-0.2,0.2l0,0l0,0.1l-0.2,0.2c-0.1,0.1-0.3,0.3-0.4,0.4c0,0,0,0,0,0c-0.2,0.2-0.4,0.4-0.6,0.6l-0.1,0.1
		l0,0l0,0l0,0l-0.1,0.1l-0.1,0.1c-0.1,0.1-0.3,0.3-0.4,0.4c-0.2,0.2-0.4,0.4-0.6,0.5l-0.2,0.2l-0.2,0.2c-0.1,0.1-0.1,0.1-0.2,0.2
		c-0.1,0.1-0.2,0.1-0.2,0.2c-0.2,0.2-0.4,0.4-0.6,0.5l-0.2,0.2l0,0l0,0l0,0l-0.1,0.1l-0.1,0.1c-0.2,0.1-0.3,0.3-0.5,0.4
		c-0.2,0.2-0.4,0.3-0.6,0.5l-0.3,0.2l0,0l-0.2,0.2c-0.2,0.1-0.3,0.3-0.5,0.4c-0.2,0.2-0.4,0.3-0.6,0.5l-0.2,0.2l-0.2,0.2
		c-0.2,0.1-0.3,0.3-0.5,0.4c-0.2,0.2-0.4,0.3-0.6,0.4l-0.2,0.2l-0.1,0.1l-0.1,0.1c-0.2,0.1-0.4,0.3-0.5,0.4
		c-0.2,0.1-0.4,0.3-0.6,0.4l-0.6,0.4c-0.2,0.1-0.3,0.2-0.5,0.3c-0.2,0.1-0.5,0.3-0.7,0.4l-0.1,0l-0.1,0.1h0l0,0l0,0l0,0l-0.3,0.2
		c-0.2,0.1-0.4,0.2-0.6,0.3c-0.2,0.1-0.5,0.3-0.7,0.4L89,111l0,0l0,0l0,0l-0.5,0.3l-0.6-0.3c-0.3-0.2-0.5-0.3-0.8-0.5l-0.7-0.4l0,0
		l0,0l-0.2-0.1c-0.3-0.2-0.5-0.3-0.8-0.5l-0.6-0.4l0,0l-0.2-0.1c-0.1-0.1-0.2-0.1-0.3-0.2c-0.2-0.1-0.4-0.2-0.6-0.4l-0.6-0.4v0l0,0
		l-0.2-0.1c-0.1-0.1-0.2-0.1-0.3-0.2c-0.2-0.1-0.4-0.3-0.5-0.4l0,0c0,0,0,0,0,0c-0.1-0.1-0.2-0.2-0.4-0.3l-0.2-0.2l0,0l-0.1,0
		c-0.2-0.2-0.4-0.3-0.6-0.5c-0.1-0.1-0.2-0.2-0.3-0.2l0,0l-0.5-0.4l0,0l0,0l0,0c-0.3-0.3-0.6-0.5-0.9-0.8c0,0,0,0,0,0c0,0,0,0,0,0
		c0,0,0,0,0,0c0,0,0,0,0,0l0,0c0,0,0,0,0,0l-0.6-0.5c0,0,0,0,0,0l0,0c-0.3-0.3-0.6-0.5-0.9-0.8l0,0l-0.5-0.4l0,0L77,103c0,0,0,0,0,0
		l0,0c-0.3-0.3-0.6-0.6-0.9-0.9l-0.4-0.4c-0.2-0.2-0.3-0.3-0.5-0.5c-0.2-0.2-0.3-0.3-0.5-0.5l0,0l-0.4-0.4l0,0l-0.1-0.1v0
		c-0.3-0.3-0.6-0.6-0.9-0.9L73,98.8c-0.3-0.3-0.6-0.7-0.9-1l-0.3-0.4c-0.3-0.4-0.6-0.7-0.9-1.1l-0.3-0.4l0,0l0,0
		c-0.3-0.4-0.6-0.8-0.9-1.2l-0.3-0.4l0,0l0,0c-0.3-0.4-0.6-0.8-0.9-1.2l0,0c0,0,0,0,0,0l-0.2-0.4c0,0,0,0,0,0
		c-0.2-0.3-0.4-0.6-0.6-0.9c-0.1-0.1-0.2-0.2-0.2-0.4l-0.2-0.4c-0.3-0.4-0.5-0.9-0.8-1.3l0,0c0,0,0,0,0,0l-0.2-0.3
		c-0.3-0.4-0.5-0.9-0.8-1.4l-0.2-0.3c-0.3-0.5-0.5-0.9-0.7-1.4l-0.1-0.3c-0.2-0.5-0.5-1-0.7-1.4l-0.1-0.3c-0.2-0.5-0.5-1-0.7-1.5h0
		c0,0,0,0,0,0l-0.1-0.2c-0.2-0.5-0.4-1-0.6-1.6l-0.5,0.2l0.4-0.4l0,0l0,0l0,0c-0.2-0.5-0.4-1.1-0.6-1.6l-0.5,0.2l0.5-0.2l-0.3,0.1
		l0.3-0.2l0,0l0,0l0,0c-0.2-0.5-0.3-1-0.5-1.6c0-0.1,0-0.1-0.1-0.2c0,0,0-0.1,0-0.1c-0.2-0.7-0.4-1.5-0.6-2.3
		c-0.1-0.2-0.1-0.5-0.2-0.8c-0.1-0.5-0.3-1.1-0.4-1.6c-0.1-0.3-0.1-0.5-0.2-0.8c-0.2-0.7-0.3-1.5-0.4-2.2c0-0.2-0.1-0.3-0.1-0.5
		c-0.1-0.9-0.3-1.8-0.4-2.8c0-0.2,0-0.4-0.1-0.6c-0.1-0.8-0.1-1.5-0.2-2.3c0-0.2,0-0.5,0-0.7c0-0.9-0.1-1.8-0.1-2.8c0-0.7,0-1.3,0-2
		c0-0.2,0-0.4,0-0.7c0-0.4,0-0.9,0.1-1.3c0-0.2,0-0.5,0.1-0.7c0-0.4,0.1-0.8,0.1-1.2c0-0.3,0.1-0.5,0.1-0.8c0-0.4,0.1-0.8,0.1-1.2
		c0-0.3,0.1-0.5,0.1-0.8c0.1-0.4,0.1-0.7,0.2-1.1c0-0.3,0.1-0.5,0.1-0.8c0.1-0.4,0.1-0.7,0.2-1.1c0.1-0.3,0.1-0.5,0.2-0.8
		c0.1-0.4,0.2-0.7,0.2-1.1c0.1-0.3,0.1-0.6,0.2-0.8c0.1-0.4,0.2-0.7,0.3-1.1v0l0-0.1c0.2-0.6,0.3-1.1,0.5-1.7l0.1-0.2l0,0l0,0
		c0.2-0.5,0.3-1,0.5-1.6l0.1-0.3c0.1-0.4,0.3-0.7,0.4-1.1c0-0.1,0.1-0.3,0.1-0.4l0,0l0.1-0.4c0.2-0.5,0.4-0.9,0.6-1.4l0,0
		c0,0,0,0,0,0l0.2-0.4c0.2-0.4,0.4-0.9,0.6-1.3l0.2-0.4l0,0l0,0c0.2-0.4,0.4-0.8,0.6-1.3l0.2-0.5c0.2-0.4,0.4-0.8,0.6-1.2l0.3-0.5
		c0.2-0.4,0.4-0.7,0.7-1.2l0.3-0.5c0.2-0.3,0.4-0.7,0.6-1l0.1-0.1l0,0l0.2-0.3l0.1-0.2c0.2-0.3,0.4-0.6,0.6-1l0,0l0.1-0.1l0,0
		l0.2-0.3l0.2-0.3c0.2-0.3,0.4-0.6,0.6-0.9l0,0l0.1-0.1l0,0l0.4-0.5c0.1-0.1,0.2-0.3,0.3-0.4c0.1-0.1,0.2-0.3,0.3-0.4l0.1-0.2l0,0
		l0,0l0,0l0.4-0.5l0-0.1c0.2-0.3,0.4-0.5,0.6-0.8l0.1-0.2l0.5-0.6l0,0c0.2-0.3,0.4-0.5,0.7-0.8l0.1-0.1l0,0l0,0l0,0l0.5-0.6l0,0
		c0.2-0.2,0.4-0.5,0.6-0.7l0,0l0.2-0.2l0,0l0.5-0.5l0.1-0.1c0.1-0.1,0.2-0.2,0.3-0.3c0.1-0.1,0.2-0.2,0.3-0.3l0.1-0.1l0.1-0.1
		l0.2-0.2l0,0c0.1-0.1,0.2-0.2,0.4-0.4c0.2-0.2,0.4-0.4,0.6-0.6l0,0l0.2-0.1l0.6-0.5c0,0,0,0,0,0c0.2-0.2,0.4-0.4,0.7-0.6l0.2-0.2
		l0.2-0.2c0.1-0.1,0.3-0.2,0.4-0.4c0,0,0,0,0,0l0,0c0,0,0,0,0,0c0.2-0.2,0.4-0.4,0.7-0.5l0.1-0.1l0.1-0.1l0,0l0,0l0,0l0.2-0.2
		c0.2-0.1,0.3-0.2,0.5-0.4l0,0c0,0,0,0,0,0c0.2-0.2,0.4-0.3,0.7-0.5l0.1-0.1l0.1-0.1l0.2-0.2c0.2-0.1,0.3-0.2,0.5-0.4
		c0.2-0.2,0.4-0.3,0.6-0.5l0.2-0.2l0,0l0.2-0.1l0,0c0.2-0.1,0.3-0.2,0.5-0.4c0.2-0.1,0.4-0.3,0.7-0.4l0.2-0.2l0,0l0.3-0.2
		c0.2-0.1,0.3-0.2,0.5-0.3l0,0c0.2-0.1,0.5-0.3,0.7-0.4l0,0l0.2-0.1l0.2-0.2c0.2-0.1,0.4-0.2,0.6-0.3l0,0c0,0,0,0,0,0
		c0.2-0.1,0.4-0.3,0.7-0.4l0,0L88,9.1l0,0l0,0l0.5-0.3L89,9.1l0.3,0.2c0.2,0.1,0.4,0.2,0.7,0.4c0.2,0.1,0.4,0.2,0.6,0.3l0.2,0.1l0,0
		l0,0l0,0l0.2,0.1c0.2,0.1,0.5,0.3,0.7,0.4l0,0c0.2,0.1,0.3,0.2,0.5,0.3l0.3,0.2l0,0l0.2,0.2C92.8,11.5,93,11.6,93.3,11.8z"/>
</g>
</svg>
