<?xml version="1.0" encoding="utf-8"?>
<!-- Generator: Adobe Illustrator 15.0.0, SVG Export Plug-In  -->
<!DOCTYPE svg PUBLIC "-//W3C//DTD SVG 1.1//EN" "http://www.w3.org/Graphics/SVG/1.1/DTD/svg11.dtd" [
	<!ENTITY ns_flows "http://ns.adobe.com/Flows/1.0/">
]>
<svg version="1.1"
	 xmlns="http://www.w3.org/2000/svg" xmlns:xlink="http://www.w3.org/1999/xlink" xmlns:a="http://ns.adobe.com/AdobeSVGViewerExtensions/3.0/"
	 x="0px" y="0px" width="180px" height="122px" viewBox="-1.5 -0.927 180 122"
	 overflow="visible" enable-background="new -1.5 -0.927 180 122" xml:space="preserve">
<defs>
</defs>
<path fill="#FFFFFF" d="M60.072,120.146C26.948,120.146,0,93.199,0,60.077C0,26.951,26.948,0,60.072,0
	C70.08,0,79.994,2.514,88.741,7.269c0.161,0.088,0.261,0.256,0.261,0.439s-0.1,0.352-0.261,0.439
	C69.689,18.511,57.854,38.41,57.854,60.077c0,21.663,11.835,41.559,30.886,51.923c0.161,0.088,0.261,0.256,0.261,0.439
	c0,0.183-0.1,0.352-0.261,0.439C80.012,117.633,70.098,120.146,60.072,120.146z M60.072,1C27.5,1,1,27.502,1,60.077
	c0,32.571,26.5,59.069,59.072,59.069c9.552,0,18.999-2.319,27.384-6.715c-18.9-10.658-30.602-30.633-30.602-52.354
	c0-21.726,11.701-41.703,30.601-52.361C79.054,3.32,69.607,1,60.072,1z"/>
<path fill="#FFFFFF" d="M116.928,120.146c-10.026,0-19.938-2.514-28.665-7.268c-0.161-0.088-0.261-0.257-0.261-0.439
	c0-0.184,0.1-0.352,0.261-0.439c19.049-10.364,30.882-30.261,30.882-51.923c0-21.667-11.833-41.565-30.882-51.93
	c-0.161-0.087-0.261-0.256-0.261-0.439s0.1-0.352,0.261-0.439C97.008,2.514,106.92,0,116.928,0C150.052,0,177,26.951,177,60.077
	C177,93.199,150.052,120.146,116.928,120.146z M89.548,112.432c8.382,4.396,17.828,6.715,27.38,6.715
	C149.5,119.146,176,92.648,176,60.077C176,27.502,149.5,1,116.928,1c-9.535,0-18.98,2.32-27.379,6.716
	c18.896,10.658,30.597,30.635,30.597,52.361C120.146,81.799,108.445,101.773,89.548,112.432z"/>
<path fill="#FFFFFF" d="M88.502,112.939c-0.082,0-0.165-0.021-0.239-0.061c-19.374-10.54-31.409-30.771-31.409-52.802
	c0-22.034,12.035-42.269,31.409-52.809c0.148-0.081,0.329-0.082,0.478,0c19.372,10.54,31.405,30.775,31.405,52.808
	c0,22.029-12.033,42.262-31.405,52.802C88.667,112.919,88.584,112.939,88.502,112.939z M88.502,8.278
	c-18.911,10.4-30.647,30.223-30.647,51.799c0,21.572,11.737,41.392,30.647,51.792c18.908-10.4,30.644-30.221,30.644-51.792
	C119.146,38.501,107.41,18.679,88.502,8.278z"/>
</svg>
